<?xml version="1.0" encoding="utf-8"?>
<!-- Generator: Adobe Illustrator 27.7.0, SVG Export Plug-In . SVG Version: 6.00 Build 0)  -->
<svg version="1.1" id="Layer_1" xmlns="http://www.w3.org/2000/svg" xmlns:xlink="http://www.w3.org/1999/xlink" x="0px" y="0px"
	 viewBox="0 0 54 54" style="enable-background:new 0 0 54 54;" xml:space="preserve">
<style type="text/css">
	.st0{fill:none;stroke:#6C5CE7;stroke-width:4;}
	.st1{fill-rule:evenodd;clip-rule:evenodd;fill:#6C5CE7;}
	.st2{fill:#6C5CE7;}
</style>
<g id="Page-1">
	<g id="logo-mobile">
		<rect id="Rectangle-6" x="2" y="2" class="st0" width="50" height="50"/>
		<path id="_x2E_" class="st1" d="M26.3,22.9c-0.5-0.5-0.7-1.2-0.7-1.9s0.2-1.4,0.7-1.9c0.5-0.5,1.1-0.8,1.7-0.8
			c0.7,0,1.3,0.3,1.7,0.8c0.5,0.5,0.7,1.2,0.7,1.9s-0.2,1.4-0.7,1.9s-1.1,0.8-1.7,0.8S26.7,23.5,26.3,22.9z"/>
		<g>
			<g>
				<path class="st2" d="M20.8,6.4v0.7c-0.8,0-1.4,0.1-1.8,0.3c-0.4,0.2-0.7,0.4-0.8,0.8c-0.1,0.4-0.2,1-0.2,1.9v17.8
					c0,0.7,0.1,1.3,0.2,1.6c0.1,0.4,0.3,0.6,0.6,0.7c0.3,0.1,0.8,0.2,1.4,0.2h1.7c0.8,0,1.5-0.2,2.2-0.6s1.3-0.9,1.9-1.6
					c0.6-0.7,1-1.5,1.4-2.5c0.4-1,0.7-2,0.8-3.2h0.8C29,23.4,29,24.4,29,25.7c0,0.5,0,1.3,0,2.3c0,1,0.1,2.1,0.2,3.2
					c-1.2,0-2.5-0.1-4-0.1s-2.8,0-4,0c-0.6,0-1.3,0-2.2,0c-0.9,0-1.9,0-2.9,0c-1,0-2.1,0-3.2,0s-2.1,0-3,0.1v-0.7
					c0.7,0,1.3-0.1,1.7-0.3c0.4-0.1,0.6-0.4,0.8-0.8c0.1-0.4,0.2-1,0.2-1.9V10.1c0-0.9-0.1-1.5-0.2-1.9c-0.1-0.4-0.4-0.7-0.8-0.8
					c-0.4-0.2-0.9-0.2-1.7-0.3V6.4c0.6,0,1.4,0,2.4,0.1c1,0,2,0,3.2,0c1,0,2,0,3,0C19.4,6.5,20.2,6.4,20.8,6.4z"/>
			</g>
		</g>
		<g>
			<g>
				<path class="st2" d="M29.7,47.1v-0.7c0.9-0.1,1.7-0.4,2.4-0.8c0.7-0.5,1.2-1.2,1.5-2.3c0.3-1.1,0.5-2.6,0.5-4.6V19.5
					c0-0.9-0.1-1.5-0.2-1.9s-0.4-0.7-0.8-0.8c-0.4-0.2-0.9-0.2-1.7-0.3v-0.7c0.6,0,1.3,0,2.3,0.1s1.9,0,3,0c1.1,0,2.1,0,3.1,0
					c1,0,1.8,0,2.5-0.1v0.7c-0.7,0-1.3,0.1-1.7,0.3c-0.4,0.2-0.6,0.4-0.8,0.8s-0.2,1-0.2,1.9v12.8c0,1,0,2,0,3.1s0,2.2-0.1,3.2
					c-0.1,1-0.2,2-0.5,2.8c-0.5,1.6-1.5,3-3,4.1C34.5,46.6,32.3,47.1,29.7,47.1z"/>
			</g>
		</g>
	</g>
</g>
</svg>
