<?xml version="1.0" encoding="utf-8"?>
<!-- Generator: Adobe Illustrator 27.7.0, SVG Export Plug-In . SVG Version: 6.00 Build 0)  -->
<svg version="1.1" id="Layer_1" xmlns="http://www.w3.org/2000/svg" xmlns:xlink="http://www.w3.org/1999/xlink" x="0px" y="0px"
	 viewBox="0 0 320 64" style="enable-background:new 0 0 320 64;" xml:space="preserve">
<g id="Page-1">
	<g id="logo" transform="translate(2.000000, 0.000000)">
		<g>
			<g>
				<path fill="#6C5CE7" d="M15.8,13.5v1.1c-1.1,0-1.9,0.2-2.5,0.4c-0.6,0.2-0.9,0.7-1.1,1.3c-0.2,0.6-0.3,1.6-0.3,2.9v27.6c0,1,0.1,1.8,0.2,2.3
					c0.1,0.5,0.4,0.9,0.8,1c0.4,0.2,1,0.2,1.8,0.2h2c1,0,1.9-0.3,2.9-1c1-0.6,1.9-1.6,2.7-2.7c0.8-1.2,1.6-2.5,2.2-4
					c0.6-1.5,1.1-3.2,1.3-4.9h1.1c-0.1,1.3-0.1,2.9-0.1,4.8c0,0.9,0,2.2,0,3.8c0,1.7,0.1,3.4,0.3,5.2c-1.7-0.1-3.5-0.1-5.6-0.1
					c-2.1,0-3.9,0-5.5,0c-0.8,0-1.9,0-3.2,0c-1.3,0-2.7,0-4.2,0c-1.5,0-3.1,0-4.6,0.1c-1.6,0-3,0-4.4,0.1v-1.1
					c1-0.1,1.8-0.2,2.3-0.4c0.5-0.2,0.8-0.6,1-1.3c0.2-0.6,0.3-1.6,0.3-2.9V19.2c0-1.3-0.1-2.3-0.3-2.9c-0.2-0.6-0.5-1.1-1-1.3
					c-0.5-0.2-1.3-0.4-2.3-0.4v-1.1c0.9,0,2,0.1,3.5,0.1c1.5,0,3,0.1,4.7,0.1c1.5,0,3,0,4.5-0.1C13.6,13.5,14.8,13.5,15.8,13.5z"/>
				<path fill="#6C5CE7" d="M54.1,23.1v22.6c0,1.6,0.2,2.8,0.7,3.6c0.4,0.8,1.2,1.2,2.3,1.2v1.1c-1-0.1-2-0.2-3-0.2c-1.5,0-2.9,0.1-4.2,0.2
					c-1.3,0.1-2.5,0.3-3.6,0.6v-4.4c-0.8,1.6-1.8,2.8-3.2,3.5c-1.3,0.7-2.9,1-4.6,1c-1.4,0-2.6-0.2-3.4-0.6c-0.9-0.4-1.5-0.9-2-1.6
					c-0.5-0.6-0.9-1.5-1.1-2.6c-0.2-1.1-0.3-2.5-0.3-4.3V29.6c0-1.6-0.2-2.8-0.6-3.6c-0.4-0.8-1.2-1.2-2.3-1.2v-1.1
					c1,0.1,2,0.2,3,0.2c1.5,0,2.9-0.1,4.2-0.2c1.3-0.1,2.5-0.3,3.6-0.6v22.7c0,0.8,0.1,1.5,0.2,2.1c0.2,0.6,0.4,1,0.8,1.3
					c0.4,0.3,0.9,0.5,1.6,0.5c0.7,0,1.4-0.2,2-0.6c0.6-0.4,1.1-1,1.5-1.8s0.6-1.6,0.6-2.6V29.6c0-1.6-0.2-2.8-0.6-3.6
					c-0.4-0.8-1.2-1.2-2.3-1.2v-1.1c1,0.1,2,0.2,3,0.2c1.5,0,2.9-0.1,4.2-0.2C51.8,23.5,53,23.4,54.1,23.1z"/>
				<path fill="#6C5CE7" d="M69.6,9.5v37.1c0,1.5,0.2,2.5,0.6,3.1c0.4,0.5,1.2,0.8,2.2,0.8v1.1c-0.6,0-1.5-0.1-2.8-0.1c-1.2-0.1-2.5-0.1-3.8-0.1
					c-1.3,0-2.7,0-4,0.1c-1.3,0.1-2.4,0.1-3,0.1v-1.1c1.1,0,1.8-0.3,2.3-0.8c0.4-0.5,0.7-1.6,0.7-3.1V16c0-1.6-0.2-2.8-0.6-3.6
					c-0.4-0.8-1.2-1.2-2.3-1.2v-1.1c1,0.1,2,0.2,3,0.2c1.5,0,2.9-0.1,4.2-0.2C67.3,9.9,68.5,9.7,69.6,9.5z M85.6,23.7v1.1
					c-1.1,0.3-2.2,0.8-3.3,1.6c-1.1,0.8-2.2,1.8-3.4,3.1l-2.7,3.1l0.4-0.9l8.1,15.9c0.3,0.6,0.7,1.2,1,1.7s0.8,0.9,1.2,1.1v1.1
					c-0.5,0-1.3-0.1-2.3-0.1c-1.1-0.1-2.1-0.1-3.2-0.1c-1.2,0-2.5,0-3.7,0.1c-1.2,0.1-2.2,0.1-2.8,0.1v-1.1c0.6,0,1.1-0.2,1.3-0.5
					c0.2-0.3,0.2-0.8-0.1-1.3l-4.5-9.8c-0.3-0.6-0.6-1-0.9-1.2c-0.3-0.2-0.8-0.3-1.2-0.3v-1c0.6,0,1-0.1,1.5-0.3
					c0.4-0.1,0.9-0.4,1.2-0.8l3.7-3.9c1.1-1.2,1.7-2.3,1.7-3.2c0-0.9-0.3-1.7-1.1-2.3c-0.7-0.6-1.7-1-2.8-1v-1.1
					c0.9,0,1.9,0.1,3,0.1c1.1,0,2,0.1,2.8,0.1c0.6,0,1.4,0,2.2,0c0.8,0,1.6,0,2.3-0.1C84.6,23.8,85.2,23.7,85.6,23.7z"/>
				<path fill="#6C5CE7" d="M100.8,22.9c2.4,0,4.6,0.5,6.4,1.4c1.8,1,3.3,2.5,4.3,4.7c1,2.2,1.5,5,1.5,8.6c0,3.6-0.5,6.5-1.5,8.6
					c-1,2.2-2.4,3.7-4.3,4.7c-1.8,0.9-4,1.4-6.4,1.4c-2.4,0-4.5-0.5-6.3-1.4c-1.8-1-3.3-2.5-4.3-4.7c-1-2.2-1.6-5-1.6-8.6
					c0-3.6,0.5-6.5,1.6-8.6c1-2.2,2.5-3.7,4.3-4.7C96.3,23.4,98.4,22.9,100.8,22.9z M100.8,24c-1.1,0-2.1,1.1-2.8,3.2
					c-0.8,2.1-1.1,5.6-1.1,10.4c0,4.8,0.4,8.3,1.1,10.4c0.8,2.1,1.7,3.2,2.8,3.2c1.2,0,2.1-1.1,2.9-3.2c0.7-2.1,1.1-5.6,1.1-10.4
					c0-4.8-0.4-8.3-1.1-10.4C102.9,25.1,102,24,100.8,24z"/>
				<path fill="#6C5CE7" d="M125.7,22.9c1.4,0,2.7,0.2,3.7,0.5c1,0.4,1.8,0.7,2.3,1c1.1,0.8,1.8,0.3,2-1.5h1c-0.1,1-0.1,2.3-0.1,3.7
					c0,1.5,0,3.4,0,5.8h-1c-0.1-1.3-0.4-2.6-0.9-3.9c-0.4-1.3-1.1-2.4-1.9-3.2c-0.8-0.8-1.9-1.3-3.3-1.3c-0.9,0-1.6,0.3-2.2,0.9
					c-0.6,0.6-0.9,1.4-0.9,2.4c0,1.1,0.3,2,0.9,2.9c0.6,0.8,1.3,1.6,2.3,2.4c0.9,0.8,1.9,1.6,2.8,2.4c1,0.9,2,1.7,2.8,2.6
					c0.8,0.9,1.5,1.8,2,2.9c0.5,1,0.8,2.3,0.8,3.7c0,1.6-0.4,3-1.3,4.2c-0.9,1.2-2,2.2-3.5,2.9c-1.4,0.7-3,1-4.8,1
					c-1.1,0-2-0.1-2.8-0.3c-0.8-0.2-1.5-0.5-2-0.9c-0.5-0.2-0.9-0.5-1.3-0.6c-0.4-0.2-0.7-0.3-1.1-0.4c-0.3,0-0.6,0.1-0.8,0.5
					c-0.2,0.4-0.4,0.8-0.5,1.4h-1c0.1-1.1,0.1-2.5,0.1-4.2c0-1.7,0-3.8,0-6.6h1c0.2,1.9,0.6,3.6,1.1,5.1c0.5,1.5,1.3,2.6,2.2,3.5
					c0.9,0.8,2,1.3,3.2,1.3c0.6,0,1.1-0.1,1.5-0.3c0.5-0.2,0.9-0.6,1.2-1.1s0.5-1.1,0.5-1.9c0-1.6-0.5-2.9-1.4-4
					c-0.9-1.1-2-2.2-3.4-3.5c-1-1-2-1.9-2.9-2.9c-0.9-0.9-1.6-2-2.2-3.1c-0.6-1.1-0.9-2.4-0.9-3.8c0-1.6,0.4-3,1.2-4.1
					c0.8-1.1,1.9-2,3.2-2.6C122.7,23.2,124.1,22.9,125.7,22.9z"/>
				<path fill="#6C5CE7" d="M151.3,22.9c2.9,0,5.1,0.9,6.7,2.8c1.6,1.9,2.4,4.9,2.4,9.2h-15.6l0-1h9c0.1-1.8,0-3.4-0.2-4.9
					c-0.2-1.5-0.5-2.7-0.9-3.6c-0.4-0.9-1-1.3-1.7-1.3c-1,0-1.8,0.8-2.5,2.3c-0.7,1.5-1.1,4.2-1.3,7.9l0.2,0.4
					c-0.1,0.4-0.1,0.8-0.1,1.2s0,0.9,0,1.3c0,2.5,0.3,4.4,0.9,5.9c0.6,1.5,1.4,2.5,2.3,3.1c0.9,0.6,1.8,0.9,2.8,0.9
					c0.6,0,1.2-0.1,1.8-0.3c0.7-0.2,1.4-0.6,2.1-1.1c0.7-0.6,1.5-1.4,2.1-2.5l0.8,0.3c-0.4,1.4-1,2.8-1.8,4.1
					c-0.9,1.3-2,2.5-3.3,3.3c-1.3,0.9-2.9,1.3-4.8,1.3c-2.1,0-4.1-0.5-5.7-1.5c-1.7-1-3-2.5-4-4.7c-1-2.1-1.5-4.9-1.5-8.4
					c0-3.4,0.5-6.2,1.6-8.4c1.1-2.2,2.5-3.8,4.4-4.9C146.9,23.5,148.9,22.9,151.3,22.9z"/>
			</g>
		</g>
		<g>
			<g>
				<path d="M164.2,62.4v-1.1c1.2-0.1,2.3-0.6,3.2-1.2c0.9-0.7,1.6-1.9,2.1-3.6c0.5-1.7,0.7-4.1,0.7-7.1V19.9c0-1.3-0.1-2.3-0.3-2.9
					c-0.2-0.6-0.5-1.1-1-1.3c-0.5-0.2-1.3-0.4-2.2-0.4v-1.1c0.8,0,1.9,0.1,3.3,0.1c1.4,0,2.9,0.1,4.4,0.1c1.6,0,3.1,0,4.5-0.1
					c1.5,0,2.7-0.1,3.7-0.1v1.1c-1,0-1.8,0.2-2.3,0.4c-0.5,0.2-0.9,0.7-1,1.3c-0.2,0.6-0.2,1.6-0.2,2.9v19.7c0,1.5,0,3.1,0,4.8
					s-0.1,3.4-0.2,5c-0.1,1.6-0.3,3-0.7,4.3c-0.7,2.5-2.2,4.6-4.5,6.2C171.3,61.6,168.2,62.4,164.2,62.4z"/>
				<path d="M197.5,23.7c2.4,0,4.6,0.5,6.4,1.4c1.8,1,3.3,2.5,4.3,4.7c1,2.2,1.5,5,1.5,8.6s-0.5,6.5-1.5,8.6s-2.4,3.7-4.3,4.7
					c-1.8,1-4,1.4-6.4,1.4c-2.4,0-4.5-0.5-6.3-1.4c-1.8-0.9-3.3-2.5-4.3-4.7c-1-2.2-1.6-5-1.6-8.6s0.5-6.5,1.6-8.6
					c1-2.2,2.5-3.7,4.3-4.7C193,24.2,195.1,23.7,197.5,23.7z M197.5,24.8c-1.1,0-2.1,1.1-2.8,3.2c-0.8,2.1-1.1,5.6-1.1,10.4
					c0,4.8,0.4,8.3,1.1,10.4s1.7,3.2,2.8,3.2c1.2,0,2.1-1.1,2.9-3.2s1.1-5.6,1.1-10.4c0-4.8-0.4-8.3-1.1-10.4
					C199.7,25.8,198.7,24.8,197.5,24.8z"/>
				<path d="M222.4,23.7c1.4,0,2.7,0.2,3.7,0.5c1,0.4,1.8,0.7,2.3,1c1.1,0.8,1.8,0.3,2-1.5h1c-0.1,1-0.1,2.3-0.1,3.7
					c0,1.5,0,3.4,0,5.8h-1c-0.1-1.3-0.4-2.6-0.9-3.9c-0.4-1.3-1.1-2.4-1.9-3.2c-0.8-0.8-1.9-1.3-3.3-1.3c-0.9,0-1.6,0.3-2.2,0.9
					c-0.6,0.6-0.9,1.4-0.9,2.4c0,1.1,0.3,2,0.9,2.9c0.6,0.8,1.3,1.6,2.3,2.4c0.9,0.8,1.9,1.6,2.8,2.4c1,0.9,2,1.7,2.8,2.6
					c0.8,0.9,1.5,1.8,2,2.9c0.5,1,0.8,2.3,0.8,3.7c0,1.6-0.4,3-1.3,4.3c-0.9,1.2-2,2.2-3.5,2.9c-1.4,0.7-3,1-4.8,1
					c-1.1,0-2-0.1-2.8-0.3c-0.8-0.2-1.5-0.5-2-0.9c-0.5-0.3-0.9-0.5-1.3-0.6c-0.4-0.2-0.7-0.3-1.1-0.4c-0.3,0-0.6,0.1-0.8,0.5
					c-0.2,0.4-0.4,0.8-0.5,1.4h-1c0.1-1.1,0.1-2.5,0.1-4.2s0-3.8,0-6.6h1c0.2,1.9,0.6,3.6,1.1,5.1c0.5,1.5,1.3,2.6,2.2,3.5
					c0.9,0.8,2,1.3,3.2,1.3c0.6,0,1.1-0.1,1.5-0.3c0.5-0.2,0.9-0.6,1.2-1.1c0.3-0.5,0.5-1.1,0.5-1.9c0-1.6-0.5-2.9-1.4-4
					c-0.9-1.1-2-2.2-3.4-3.5c-1-1-2-1.9-2.9-2.9c-0.9-0.9-1.6-2-2.2-3.1c-0.6-1.1-0.9-2.4-0.9-3.8c0-1.6,0.4-3,1.2-4.1
					c0.8-1.1,1.9-2,3.2-2.6C219.4,24,220.9,23.7,222.4,23.7z"/>
				<path d="M248,23.7c2.9,0,5.1,0.9,6.7,2.8c1.6,1.9,2.4,4.9,2.4,9.2h-15.6l0-1h9c0.1-1.8,0-3.4-0.2-4.9c-0.2-1.5-0.5-2.7-0.9-3.6
					c-0.4-0.9-1-1.3-1.7-1.3c-1,0-1.8,0.8-2.5,2.3c-0.7,1.5-1.1,4.2-1.3,7.9l0.2,0.4c-0.1,0.4-0.1,0.8-0.1,1.2c0,0.4,0,0.9,0,1.3
					c0,2.5,0.3,4.4,0.9,5.9s1.4,2.5,2.3,3.1c0.9,0.6,1.8,0.9,2.8,0.9c0.6,0,1.2-0.1,1.8-0.3c0.7-0.2,1.4-0.6,2.1-1.1
					c0.7-0.6,1.5-1.4,2.1-2.5l0.8,0.3c-0.4,1.4-1,2.8-1.8,4.1c-0.9,1.3-2,2.5-3.3,3.3c-1.3,0.9-2.9,1.3-4.8,1.3
					c-2.1,0-4.1-0.5-5.7-1.5c-1.7-1-3-2.5-4-4.7s-1.5-4.9-1.5-8.4c0-3.4,0.5-6.2,1.6-8.4c1.1-2.2,2.5-3.8,4.4-4.9
					C243.6,24.2,245.7,23.7,248,23.7z"/>
				<path d="M270.3,23.9v32.7c0,1.7,0.4,2.9,1.1,3.4c0.8,0.6,1.8,0.9,3.1,0.9v1.1c-0.9,0-2.1-0.1-3.6-0.1c-1.6-0.1-3.2-0.1-4.9-0.1
					c-1.2,0-2.5,0-3.7,0.1c-1.2,0.1-2.1,0.1-2.7,0.1v-1.1c1,0,1.8-0.3,2.2-0.8c0.4-0.5,0.6-1.5,0.6-3V30.4c0-1.6-0.2-2.8-0.6-3.6
					c-0.4-0.8-1.2-1.2-2.3-1.2v-1.1c1,0.1,2,0.2,3,0.2c1.5,0,2.9-0.1,4.2-0.2C268,24.3,269.2,24.1,270.3,23.9z M277.8,23.7
					c1.7,0,3.1,0.5,4.4,1.5c1.3,1,2.3,2.5,3.1,4.5c0.8,2,1.1,4.5,1.1,7.5c0,2.8-0.3,5.3-0.9,7.3c-0.6,2-1.4,3.7-2.4,4.9
					c-1,1.3-2.2,2.2-3.6,2.8s-2.9,0.9-4.5,0.9c-1.2,0-2.3-0.2-3.3-0.6s-1.8-1-2.4-1.8l0.5-0.7c0.3,0.5,0.7,0.9,1.2,1.1
					c0.5,0.2,1.1,0.4,1.7,0.4c1.3,0,2.4-0.5,3.2-1.5c0.8-1,1.4-2.5,1.7-4.5c0.4-2,0.5-4.4,0.5-7.2c0-3.1-0.2-5.6-0.5-7.3
					c-0.3-1.7-0.8-3-1.3-3.7c-0.6-0.7-1.2-1.1-1.9-1.1c-1,0-2,0.4-2.8,1.3c-0.8,0.9-1.3,2.1-1.4,3.6l-0.1-2.3c0.7-1.7,1.7-3,3-3.9
					C274.5,24.1,276,23.7,277.8,23.7z"/>
				<path d="M299.8,10.2v18c0.8-1.6,1.9-2.8,3.2-3.5c1.3-0.7,2.9-1,4.6-1c1.4,0,2.6,0.2,3.4,0.6c0.9,0.4,1.5,0.9,2,1.5
					c0.5,0.7,0.9,1.6,1.1,2.6c0.2,1.1,0.3,2.5,0.3,4.4v14.5c0,1.5,0.2,2.5,0.7,3.1c0.4,0.5,1.2,0.8,2.3,0.8v1.1
					c-0.6,0-1.6-0.1-2.8-0.1c-1.3-0.1-2.5-0.1-3.8-0.1c-1.3,0-2.6,0-3.8,0.1c-1.2,0.1-2.2,0.1-2.8,0.1v-1.1c0.9,0,1.5-0.3,1.9-0.8
					c0.4-0.5,0.5-1.6,0.5-3.1V30.2c0-0.8-0.1-1.5-0.2-2.1c-0.2-0.6-0.4-1-0.8-1.3c-0.4-0.3-0.9-0.5-1.6-0.5c-0.7,0-1.4,0.2-2.1,0.6
					c-0.6,0.4-1.1,1-1.5,1.8c-0.4,0.8-0.6,1.7-0.6,2.7v16c0,1.5,0.2,2.5,0.6,3.1c0.4,0.5,1,0.8,1.9,0.8v1.1c-0.6,0-1.5-0.1-2.6-0.1
					c-1.2-0.1-2.4-0.1-3.6-0.1c-1.3,0-2.6,0-4,0.1c-1.3,0.1-2.4,0.1-3,0.1v-1.1c1.1,0,1.8-0.3,2.3-0.8c0.4-0.5,0.7-1.6,0.7-3.1V16.7
					c0-1.6-0.2-2.8-0.6-3.6c-0.4-0.8-1.2-1.2-2.3-1.2v-1.1c1,0.1,2,0.2,3,0.2c1.5,0,2.9-0.1,4.2-0.2
					C297.5,10.7,298.7,10.5,299.8,10.2z"/>
			</g>
		</g>
	</g>
</g>
</svg>
