<svg xmlns="http://www.w3.org/2000/svg" xmlns:xlink="http://www.w3.org/1999/xlink" version="1.1" x="0px" y="0px" viewBox="0 0 53 53" style="enable-background:new 0 0 53 53;" xml:space="preserve"><g><path d="M32.2367668,30.5625916c0.1552734-0.0888672,0.2504883-0.2548828,0.25-0.4345703l-0.0009766-0.2509766   c-0.0050697-1.7453156-1.3743896-2.5313301-2.894043-1.6542969c0,0.0009766,0,0.0009766,0,0.0009766   c-1.3393555,0.7724609-2.3847656,2.5830078-2.3803711,4.1230469l0.0004883,0.2519531   c0.0010548,0.3860855,0.4202785,0.6236305,0.75,0.4316406L32.2367668,30.5625916z M30.0917473,29.0899353   c0-0.0009766,0-0.0009766,0-0.0009766c0.8165894-0.4696922,1.3755302-0.2097549,1.3935547,0.7529297l-3.1958008,1.8447266   C28.5228996,30.6631775,29.2528801,29.5733337,30.0917473,29.0899353z"/><path d="M30.087841,27.6280212c0.7553711-0.4365234,1.3452148-1.4580078,1.3427734-2.3242188   c-0.0030746-1.0799713-0.9102345-1.60149-1.8500977-1.0585938c-0.7539063,0.4355469-1.3427734,1.4570313-1.340332,2.3251953   C28.2432804,27.6536598,29.1549549,28.1658039,30.087841,27.6280212z M30.0805168,25.1104431   c0.2591362-0.1469231,0.3492184-0.1195869,0.3500977,0.1953125c0.0014648,0.515625-0.3925781,1.1962891-0.8427734,1.4560547   c-0.2564392,0.1479168-0.3467846,0.1169662-0.3476563-0.1933594   C29.2387199,26.0508728,29.6312981,25.3702087,30.0805168,25.1104431z"/><path d="M34.5697746,4.1963816l-0.8056641,0.6162109c-0.2192383,0.1679688-0.2612305,0.4814453-0.0932617,0.7011719   c0.1665421,0.2187443,0.4809341,0.2615151,0.7006836,0.09375l0.8056641-0.6162109   c0.2192383-0.1679688,0.2612305-0.4814453,0.0932617-0.7011719C35.1029778,4.070405,34.7904778,4.0284128,34.5697746,4.1963816z"/><path d="M10.806591,17.8907166l1.4057617,8.9033203c0.0234375,0.1484375,0.1123047,0.2783203,0.2421875,0.3544922   l4.6591797,2.7080078c0.1919022,0.1103783,0.5379162,0.0727673,0.6860352-0.1835938l1.5014648-2.5908203l0.6098022,0.3485718   l-5.6005249,9.68573c-3.0937891-1.7547989,0.509841,0.2887688-1.3270874-0.7518921l-0.0020142-0.0011597   c-0.3083096-0.1783218-0.6963701,0.0451698-0.7407227,0.3660889c-0.6724157,4.865406-1.3486328,10.4971924-1.3486328,10.4971924   c-0.0253906,0.1992188,0.0708008,0.3945313,0.2446289,0.4960938l4.6533813,2.7046509   c0.0033569,0.0020752,0.0043335,0.0062866,0.0077515,0.0082397c0.0776367,0.0439453,0.1635742,0.0664063,0.2495117,0.0664063   c0.0133057,0,0.0244141-0.0116577,0.0377197-0.0127563c0.0626831-0.0049438,0.1255493-0.0145264,0.1834717-0.0429077   c0.0150146-0.0073853,0.0230713-0.0227661,0.0371094-0.0315552c0.0140381-0.008606,0.0321045-0.005249,0.0454102-0.0153198   l8.4399414-6.4599609c0.246624-0.1895676,0.2595425-0.6401825-0.0504761-0.8270264   c-0.1000099-0.0602722-1.4236526-0.8285294-1.3236084-0.7678223l3.3468018-5.7964478   c0.6244946,0.079113,1.2441349-0.0001106,1.8547363-0.1816406c0.450901,0.2612228-1.6329956-0.9470024,4.4099731,2.5544434   c0.1239281,0.0647202,0.2353287,0.0759506,0.3582764,0.0448608c0.1013603-0.0388641,8.5933838-3.2944298,8.4921875-3.3076172   c0.21875-0.0849609,0.3486328-0.3115234,0.3125-0.5429688c-0.1439896-0.9128304,0.5175056,3.3074265-1.4085083-8.9274292   c-0.0285072-0.1474762-0.1490517-0.2886028-0.2340698-0.3381958L35.8886223,23.13974   c-0.0036011-0.0020752-0.0079956-0.0019531-0.0116577-0.0039673c-0.1591797-0.473938-0.3826904-0.8873901-0.6577759-1.2436523   l3.4726563-6.0101919l1.328125,0.7548819c0.3060226,0.17663,0.6974182-0.0176125,0.7431641-0.3710938l1.3500977-10.499999   c0.017704-0.1380858-0.0482025-0.3766112-0.2402344-0.4902954C41.7727852,5.216094,37.111187,2.5049436,37.2113762,2.565522   c-0.1738281-0.1005859-0.3930664-0.0888672-0.5546875,0.0351563L35.619091,3.393647   c-0.2192383,0.1679688-0.2612305,0.4814453-0.09375,0.7011721c0.168457,0.2197266,0.4819336,0.2626953,0.7011719,0.09375   l0.7719727-0.589844l3.7211304,2.1619265c-0.1021271,0.0781474-8.0649605,6.1712198-7.5635376,5.7875366   c-0.1014137-0.0585041-3.9096317-2.255434-3.7347412-2.154541l3.9072266-2.9882813   c0.2192383-0.1679688,0.2612305-0.4814453,0.0932617-0.7011719c-0.1665039-0.21875-0.4804688-0.2607422-0.7006836-0.09375   l-4.5009766,3.4423828c-0.2841759,0.2173109-0.2535248,0.6521168,0.0527344,0.8300781l1.3117065,0.762085l-5.6057129,9.7324209   l-0.6082764-0.3493042l1.4696655-2.5455933c0.1149006-0.1987228,0.0570297-0.5489597-0.1801758-0.6865234l-4.6591797-2.7070303   c-0.1308594-0.0751953-0.2900391-0.0869141-0.4326172-0.0332031l-8.449707,3.2910147   C10.9484138,17.4126511,10.774044,17.6847973,10.806591,17.8907166z M13.1630363,26.4034119l-1.2050781-7.6296997   l3.5421143,2.05896c0.0163059,0.1030502,1.2881165,8.1404305,1.2073975,7.6303101L13.1630363,26.4034119z M18.6845207,26.1514587   l-1.0439453,1.8017578c-0.0159531-0.100853-1.2000809-7.5867653-1.1248169-7.1109619l6.7488403-2.6273193   c-0.2530613,0.4374943-0.7591419,1.3125076-1.012207,1.75c-0.0614605,0.1084614-0.1520939,0.5407753,0.1679688,0.7216797   l2.2510986,1.2775269c-1.3757267,1.4812603-2.5009003,3.4316597-3.0882568,5.2199707   c-0.2220173-0.1216621-2.355772-1.2909317-2.2194824-1.2162476C19.1249504,25.8291931,18.822216,25.9151306,18.6845207,26.1514587z    M31.2372551,20.4571228l0.3168945,0.1806641c-0.0129395,0.0026245-0.0267334,0.0091553-0.0396729,0.0119019   c-0.6334229,0.132822-1.38908,0.4539356-1.9246826,0.7626343c-0.0026245,0.0015259-0.005188,0.0022583-0.0078125,0.0037842   c-1.5092506,0.8711071-3.210516,2.5422516-4.4731445,4.8560181c-0.9950562,1.8228149-1.6064453,3.8352051-1.6025391,5.6586304   c0.0001221,0.0300903,0.0061646,0.0557861,0.0065918,0.0856323c0.0081654,0.5973167,0.1006355,1.3525772,0.3131714,1.980835   c0.0044556,0.0131226,0.0057983,0.0289307,0.0103149,0.0419312c-0.455492-0.3341789-1.4174995-0.6226082-1.7414551-2.5109863   c-0.6097984-3.6160011,2.1437149-8.7249775,5.4934082-10.6628418   C28.6851807,20.2295208,30.1510391,19.8247948,31.2372551,20.4571228z M20.7760124,27.9252014l0.5132446,0.293396   c-0.0030518,0.0126953-0.0040894,0.0252686-0.0070801,0.0379639c-0.2542973,1.0860596-0.3615913,2.2932892-0.1738892,3.4095459   c0.1488686,0.9065437,0.4925976,1.780407,1.1229248,2.4380493c0.0078735,0.0082397,0.0131836,0.0195313,0.0211182,0.02771   l-3.2607422,5.6514282c-0.2551804-0.1454544-4.0544558-2.3110809-3.8119507-2.1728516L20.7760124,27.9252014z    M13.134655,37.6091614l3.7207031,2.1627808l-1.2079468,9.4156494l-3.7211914-2.1630859L13.134655,37.6091614z    M17.7972527,40.3089905c0.3964939,0.2257462,5.8956184,3.3548393,5.7887573,3.2929688l-6.8897705,5.2741089L17.7972527,40.3089905   z M25.7675285,36.2735291l-3.2158203,5.5703735l-2.6948853-1.5597534l3.1967163-5.5396118   C24.1748886,35.3803253,25.5025826,36.1526833,25.7675285,36.2735291z M24.5087395,31.9278259   c-0.0054932-1.9907227,0.7832642-4.230835,2.0231934-6.126709c0.9171143-1.4019203,2.2022686-2.741045,3.5505371-3.5197754   c2.885891-1.6649036,5.1044922-0.3774433,5.1044922,2.9013672c0,3.6911163-2.6476212,7.9707108-5.5727539,9.6582031   C26.8717766,36.4486275,24.5192719,35.3836784,24.5087395,31.9278259z M31.9711418,34.3056946l2.342041,1.3329468   l-1.239502,2.1593018l-3.2875977-1.9091797C30.5706749,35.4757233,31.3496304,34.8941345,31.9711418,34.3056946z    M34.3969231,37.5020447l1.0336914-1.8007813c0.1486206-0.2581863,0.0296059-0.5586052-0.1831055-0.6816406l-2.5441895-1.473938   c0.005188-0.0056763,0.0094604-0.0123291,0.0145874-0.0180664c1.4670105-1.6510906,2.4968414-3.6752129,2.9807129-5.2724609   l2.6011353,1.4822388c0.2612343,0.1478233,0.5589905,0.024847,0.6801758-0.1835938l1.0425415-1.7994385l1.1185913,7.1187744   L34.3969231,37.5020447z M39.6140862,26.4638977L38.365612,28.618866c-0.1252594-0.0727673-2.5542297-1.4838562-2.3998413-1.394165   c0.1147423-0.5480804,0.2250595-1.3994274,0.2231445-2.0400391c-0.0006714-0.2531738-0.0136719-0.4976807-0.0369873-0.7342529   L39.6140862,26.4638977z M39.8661613,15.3995066l-1.1118164-0.6318359   c-0.2397461-0.1386719-0.5424805-0.0537109-0.6801758,0.1845703l-3.5932617,6.218749   c-0.0786133-0.0566406-0.1606445-0.1113281-0.246582-0.1630859l-2.446167-1.3895874l3.5819092-6.2061148   c0.1371956-0.2380896,0.0411072-0.5529957-0.1821289-0.6826172l-0.0020752-0.0012207   c-0.0003662-0.0001831-0.0004883-0.0005493-0.0008545-0.0007324c-0.1001549-0.0582085-1.1899376-0.6915703-1.0897827-0.6333618   c0.1021118-0.0781698,7.323204-5.6062031,6.8724976-5.2611694L39.8661613,15.3995066z M30.4496574,11.1476145   c0.1031361,0.0596361,4.0534935,2.3438559,3.8030396,2.1990356L30.8554192,19.23349   c-0.0142212-0.00354-0.0299072-0.0021973-0.0441284-0.0055542c-1.2389851-0.2953148-2.6170197,0.1236305-3.7278442,0.7672729   c-0.5421658,0.312952-1.1728668,0.7911282-1.6461182,1.2177124l-0.5882568-0.3417358L30.4496574,11.1476145z    M19.7069817,15.0752878l3.5537109,2.0644522l-7.258667,2.8270874l-3.5532227-2.0654297L19.7069817,15.0752878z"/></g><text x="0" y="68" fill="#000000" font-size="5px" font-weight="bold" font-family="'Helvetica Neue', Helvetica, Arial-Unicode, Arial, Sans-serif">Created by Brickclay</text><text x="0" y="73" fill="#000000" font-size="5px" font-weight="bold" font-family="'Helvetica Neue', Helvetica, Arial-Unicode, Arial, Sans-serif">from the Noun Project</text></svg>