<svg xmlns="http://www.w3.org/2000/svg" xmlns:xlink="http://www.w3.org/1999/xlink" version="1.1" x="0px" y="0px" viewBox="0 0 53 53" style="enable-background:new 0 0 53 53;" xml:space="preserve"><g><path d="M12.7314701,18.067976l18.15625-10.4790039c0.2392578-0.1381836,0.3212891-0.4438477,0.1826172-0.6831055   c-0.1367188-0.2392578-0.4433594-0.3212891-0.6826172-0.1831055L12.229517,17.2027416   c-1.3134766,0.7666016-2.3359375,2.5444336-2.3271484,4.0463867l0.0517578,22.6171894   c0,0.8266602,0.3046875,1.4550781,0.8535156,1.7670898c1.1884718,0.6908913,3.25842,1.8940849,3.125,1.8173828   c0.6271725,0.3605576,1.359602,0.212822,1.9833984-0.1474609l6.6242676-3.824646l-0.1213379,2.2855835   c-0.0097656,0.1845703,0.0830078,0.359375,0.2411938,0.4545898c1.7463551,1.0535889,5.2390366,3.1607552,6.9853687,4.2143555   c0.1772861,0.1061516,0.3998947,0.0615349,0.5,0.0068359c0.1002693-0.0547905,8.3321896-4.7854118,8.2314472-4.7832031   c0.1494141-0.0864258,0.2431641-0.2431641,0.2490234-0.4155273c0.0085716-0.2580452,0.0820313-2.5236435,0.0820313-2.4013672   c0-0.1263962-0.1206932-0.3588715-0.2451172-0.4331055c-0.100544-0.0599899-4.7581673-2.7514915-4.6572266-2.6889648   l0.2753296-2.9024048l6.6826782-3.8583374c1.3125-0.7578125,2.3369141-2.5336933,2.3339844-4.0429707L43.0478783,6.302351   c-0.0018921-0.8084106-0.2994995-1.4257202-0.8318481-1.7522583c-0.0097046-0.0065918-0.0153198-0.0166626-0.0255737-0.022644   l-3.1201172-1.8149414c-0.5654297-0.3251953-1.2705078-0.2709961-1.9892578,0.1474609l-2.8945313,1.6704102   c-0.2392578,0.1381836-0.3212891,0.4438477-0.1826172,0.6831055c0.1367188,0.2387695,0.4423828,0.3208008,0.6826172,0.1831055   l2.8964844-1.6713867c0.3964844-0.2324219,0.7480469-0.2836914,0.9863281-0.1474609L40.325222,4.599226   c-0.0419922,0.0209961-0.0830078,0.0439453-0.125,0.0673828L15.3506107,19.0157299   c-1.3284712,0.7663689-2.3369188,2.5621605-2.3320313,4.0488281l0.0249023,11.3040791   c0.0078506,3.7360573,0.0197163,11.223774,0.0249023,11.4234619l-1.7626953-1.0253906   c-0.2236328-0.1269531-0.3515625-0.4555664-0.3515625-0.9013672l-0.0517578-22.6201191   C10.8955326,20.1050854,11.7343998,18.649519,12.7314701,18.067976z M23.573267,42.8878021l1.2226563-0.7080078   l-0.2460938,2.5424805c-0.0139542,0.1456032,0.074482,0.3812675,0.2490234,0.4819336l4.6737671,2.6870728l-0.0415039,1.2389526   l-5.9974976-3.6130371L23.573267,42.8878021z M30.4374638,49.114975l0.0405273-1.2097778   c0.1008854-0.0585594,7.6769733-4.4558334,7.1976337-4.1776123l-0.039856,1.2036743L30.4374638,49.114975z M37.2060814,42.8391571   c-0.1008682,0.0585861-7.7036953,4.474781-7.2197285,4.1936646l-3.9420776-2.2661133l7.2285175-4.201416L37.2060814,42.8391571z    M32.8041649,39.6816864l-7.1647358,4.1643066l0.2215576-2.2817993c0.1000175-0.0577888,7.6374302-4.4125175,7.1575336-4.1352539   L32.8041649,39.6816864z M40.2636986,32.0909271c-9.8479538,5.6858711-16.7836456,9.6903038-24.8476582,14.3461914   c-0.8594427,0.4967308-1.3457975,0.1184044-1.3476563-0.7631836l-0.0248413-11.2857666l-0.0220337-11.3294697   c-0.0066624-1.1025944,0.8121567-2.5879803,1.8310547-3.1762695L40.700222,5.5362377   c0.7980232-0.4610543,1.3455582-0.1917648,1.3476563,0.7685547l0.0498047,22.6113281   C42.1006126,30.0616283,41.2607689,31.5152416,40.2636986,32.0909271z"/><path d="M40.1972923,7.9683666c-0.1542969-0.0888672-0.3447266-0.0888672-0.4990234,0l-23.83008,13.7583008   c-0.1552734,0.0898438-0.25,0.2553711-0.25,0.4345703l0.0498047,19.6523457c0,0.3811073,0.4167442,0.6235771,0.75,0.4316406   L40.247097,28.4874096c0.1552734-0.0898438,0.25-0.2553711,0.25-0.4345703l-0.0488281-19.652832   C40.4482689,8.2217846,40.3525658,8.0572338,40.1972923,7.9683666z M16.6660404,40.9473724l-0.046875-18.4995136   L39.450222,9.2662182l0.0458984,18.5L16.6660404,40.9473724z"/><path d="M36.5351639,31.9141674l-1.4277153,0.8242207c-0.2392578,0.1381836-0.3212891,0.4438477-0.1826172,0.6831055   c0.1360245,0.2373161,0.441246,0.3216667,0.6826172,0.1831055l1.4277153-0.8242188   c0.2392769-0.1381836,0.3213081-0.4438477,0.1826363-0.6831055C37.0810814,31.8575268,36.7734642,31.7759838,36.5351639,31.9141674   z"/><path d="M39.3838158,30.2696362l-1.4277344,0.8237305c-0.2392578,0.1381836-0.3212891,0.4438477-0.1826172,0.6831055   c0.1367226,0.2385387,0.4421844,0.3211308,0.6826172,0.1831055l1.4277344-0.8237305   c0.2392578-0.1381836,0.3212891-0.4438477,0.1826172-0.6831055C39.9287376,30.2134838,39.6230736,30.1314526,39.3838158,30.2696362   z"/><path d="M29.1699467,29.6993237l-1.6777344,0.9686279l-0.0009766-0.4066162   c-0.0009766-0.2758789-0.2246094-0.4990234-0.5-0.4990234h-0.0009766c-0.2763672,0.0004883-0.5,0.2250977-0.4990234,0.5009766   l0.0023193,0.9812622l-7.8284912,4.5197163c-0.2392578,0.1381836-0.3212891,0.4438477-0.1826172,0.6831055   c0.136116,0.2382011,0.4419727,0.3212509,0.6826172,0.1831055l7.3311768-4.232605l0.0018311,0.7677612   c0.0009766,0.2758789,0.2246094,0.4990234,0.5,0.4990234h0.0009766c0.2763672-0.0004883,0.5-0.2250977,0.4990234-0.5009766   l-0.0031738-1.3424091l2.1750488-1.2557373c0.2392578-0.1381836,0.3212891-0.4438477,0.1826172-0.6831055   C29.7148685,29.6421947,29.4082279,29.5616283,29.1699467,29.6993237z"/><path d="M18.7246342,32.3609467c0.1542473,0.0888367,0.3447266,0.0883789,0.4990234-0.0004883l9.7792969-5.645998   c0.1552734-0.0898438,0.2509766-0.2553711,0.25-0.4345703l-0.0234375-8.2236328   c-0.0009766-0.1782227-0.0957031-0.3427734-0.2509766-0.4321289c-0.1542969-0.0888672-0.3447266-0.0883789-0.4990234,0.0004883   l-9.7792969,5.6459961c-0.1552734,0.0898438-0.2509766,0.2553711-0.25,0.4345703l0.0234375,8.2236328   C18.4746342,32.1070404,18.5693607,32.2715912,18.7246342,32.3609467z M28.2324467,18.9224682l0.0195313,7.0708008   l-8.78125,5.0693359l-0.0195313-7.0708008L28.2324467,18.9224682z"/><path d="M22.5615482,28.2188549c0.1513672,0,0.2988281-0.0688477,0.3945313-0.1933594l2.7744141-3.5727539   c0.1103516-0.1416016,0.1357422-0.3305664,0.0683594-0.496582c-0.0683594-0.1655273-0.2197266-0.2822266-0.3974609-0.3056641   l-2.7861328-0.3691406c-0.2885532-0.0407963-0.5654297,0.1854458-0.5654297,0.4970703l0.0117188,3.9418945   C22.0628185,27.9976444,22.2882862,28.2188549,22.5615482,28.2188549z M24.4072514,24.5274487l-1.3496094,1.737793   l-0.0058594-1.9174805L24.4072514,24.5274487z"/><path d="M37.4472923,24.3184643l-2.1132813-1.1967773l0.4785156-0.8300781   c0.1005859-0.1733398,0.0878906-0.3896484-0.0322266-0.5498047c-0.1201363-0.159668-0.3203125-0.2314453-0.5195313-0.1860352   l-3.8281269,0.9365234c-0.2778912,0.0684509-0.4414959,0.3565865-0.3603516,0.628418l1.1191425,3.7553711   c0.0576172,0.1914063,0.2226563,0.3305664,0.4208984,0.3540039c0.1982422,0.0244141,0.3916016-0.0737305,0.4921875-0.246582   l0.4814453-0.8354492l2.1142578,1.2089844c0.2368622,0.1361961,0.5437164,0.0548439,0.6806641-0.184082l1.2529297-2.1694336   C37.7734261,24.7647648,37.6894684,24.4548168,37.4472923,24.3184643z M35.7646751,26.2418041l-2.1152344-1.2089844   c-0.2354431-0.1353779-0.5421371-0.0567513-0.6816406,0.184082l-0.1494141,0.2602539l-0.6376953-2.1381836l2.1806641-0.5332031   l-0.1455078,0.2524414c-0.1396141,0.2387581-0.0556564,0.5487061,0.1865234,0.6850586l2.1132813,1.1967773L35.7646751,26.2418041z"/><path d="M32.2207298,6.8199291l1.2734375-0.7353516c0.2392578-0.1381836,0.3212891-0.4438477,0.1826172-0.6831055   c-0.1376953-0.2402344-0.4443359-0.3217773-0.6826172-0.1831055l-1.2734394,0.7353516   c-0.2392578,0.1381836-0.3212891,0.4438477-0.1826172,0.6831055C31.6742268,6.8750262,31.9800835,6.9580765,32.2207298,6.8199291z"/></g><text x="0" y="68" fill="#000000" font-size="5px" font-weight="bold" font-family="'Helvetica Neue', Helvetica, Arial-Unicode, Arial, Sans-serif">Created by Brickclay</text><text x="0" y="73" fill="#000000" font-size="5px" font-weight="bold" font-family="'Helvetica Neue', Helvetica, Arial-Unicode, Arial, Sans-serif">from the Noun Project</text></svg>