<svg xmlns="http://www.w3.org/2000/svg" xmlns:xlink="http://www.w3.org/1999/xlink" version="1.1" x="0px" y="0px" viewBox="0 0 53 53" style="enable-background:new 0 0 53 53;" xml:space="preserve"><g><path d="M28.9141464,14.0048828c-0.4145508-0.2509766-0.9506836-0.2197266-1.46875,0.0820313   c-0.4272461,0.2470703-0.8208008,0.65625-1.1064453,1.1474609c-0.6821289,1.1474609-0.6171875,2.4042969,0.1381836,2.8574219   c0.3645992,0.2284698,0.8910313,0.2643757,1.4746094-0.0742188c0.4194336-0.2392578,0.8134766-0.6474609,1.1098633-1.1494141   C29.7359238,15.7246094,29.6719589,14.4677734,28.9141464,14.0048828z M28.2002792,16.3603516   c-0.2060547,0.3486328-0.4775391,0.6367188-0.7470703,0.7910156c-0.1865234,0.1083984-0.3623047,0.1425781-0.453125,0.0878906   c-0.1791992-0.1074219-0.2402344-0.7558594,0.2011719-1.4980469c0.2016602-0.3476563,0.4658203-0.6269531,0.746582-0.7890625   c0.1308594-0.0761719,0.253418-0.1171875,0.3457031-0.1171875c0.0405273,0,0.0751953,0.0078125,0.1015625,0.0244141   C28.5738144,14.96875,28.6358261,15.6210938,28.2002792,16.3603516z"/><path d="M32.0752792,13.1396484c-0.1000977-0.0927734-0.2768555-0.1943359-0.5556641-0.1591797   c-0.0024414,0.0009766-0.0043945,0.0009766-0.0063477,0.0009766l-0.2626953,0.0380859   c-0.0483398-0.1367188-0.1079102-0.2578125-0.1645508-0.3652344l0.3623047-0.8759766   c0.137207-0.4326172-0.0356445-0.7197266-0.2080078-0.8222656l-0.3974609-0.2861328   c-0.2016602-0.1689453-0.4956055-0.1816406-0.7197266-0.0410156c-0.0849609,0.0498047-0.1577148,0.1123047-0.2060547,0.171875   l-0.5698242,0.6396484c-0.1079102-0.0087891-0.2177734-0.0117188-0.3242188-0.0058594l-0.090332-0.3681641   c-0.0385742-0.1943359-0.159668-0.3535156-0.3310547-0.4375c-0.1757813-0.0849609-0.3837891-0.0791016-0.5698242,0.0146484   l-0.6738281,0.3398438c-0.215332,0.1240234-0.3652344,0.3447266-0.4423828,0.6464844l-0.2133789,0.8242188   c-0.25,0.2060547-0.4941406,0.4414063-0.6958008,0.6679688l-0.4179688-0.046875   c-0.1411133-0.0322266-0.2880859-0.0097656-0.480957,0.0908203c-0.1088867,0.0683594-0.2099609,0.1679688-0.2924805,0.2919922   l-0.4790039,0.765625c-0.1645508,0.2695313-0.1801758,0.5664063-0.043457,0.8408203l0.2182617,0.4228516   c-0.1396484,0.3378906-0.246582,0.6650391-0.3066406,0.9541016L23.5103378,17.03125   c-0.2001953,0.1601563-0.3334961,0.4160156-0.3476563,0.6738281l-0.0307617,0.7412109   c-0.0252037,0.4515514,0.3445225,0.7451115,0.753418,0.6708984l0.2832031-0.0400391   c0.0463867,0.1416016,0.0961914,0.2626953,0.1459961,0.3554688L23.9717636,20.28125   c-0.1469727,0.3310547-0.065918,0.6904297,0.1855469,0.8642578l0.4716797,0.3427734   c0.1945629,0.1091194,0.4359665,0.1054249,0.6582031-0.0205078c0.0556641-0.0332031,0.1381836-0.0888672,0.1918945-0.1601563   l0.5820313-0.6425781c0.1044922,0.0097656,0.2099609,0.0126953,0.3149414,0.0068359l0.0981445,0.4208984   c0.0532227,0.1748047,0.1762695,0.3164063,0.3378906,0.3886719c0.1689453,0.0751953,0.3603516,0.0712891,0.5571289-0.0195313   l0.6577148-0.3330078c0.1503906-0.0849609,0.3510742-0.2675781,0.4521484-0.6484375L28.692955,19.65625   c0.2666016-0.2138672,0.5112305-0.4658203,0.6987305-0.671875l0.5874023,0.078125   c0.1987305,0.0302734,0.3857422-0.0654297,0.4892578-0.2304688l0.7045898-1.1259766   c0.0942383-0.1503906,0.1015625-0.3398438,0.0195313-0.4970703L30.8858261,16.625   c0.1513672-0.3886719,0.2514648-0.6933594,0.3051758-0.9550781L31.902916,15.0625   c0.1865234-0.1591797,0.3154297-0.4160156,0.3291016-0.6582031l0.0366211-0.7490234   C32.2852402,13.3798828,32.1548691,13.2138672,32.0752792,13.1396484z M26.1158066,20.6044922l0.0004883-0.0009766   c0.0039063-0.0019531,0.0092773-0.0058594,0.0170898-0.0097656C26.1275253,20.5976563,26.121666,20.6005859,26.1158066,20.6044922z    M31.2539902,14.3017578l-0.7211914,0.6152344c-0.1503906,0.1347656-0.2587891,0.3154297-0.293457,0.4814453   c-0.0649414,0.2617188-0.1591797,0.5449219-0.3012695,0.9042969c-0.090332,0.2089844-0.0986328,0.4277344-0.0029297,0.6582031   l0.2382813,0.4570313l-0.3823242,0.6113281l-0.4042969-0.0537109c-0.1669922-0.0292969-0.3344727,0.0048828-0.4291992,0.0712891   c-0.0913086,0.046875-0.1567383,0.1083984-0.2299805,0.1835938c-0.1787109,0.1972656-0.4150391,0.4492188-0.6391602,0.6289063   c-0.1616211,0.1162109-0.2851563,0.3017578-0.3378906,0.5019531l-0.1953125,0.8857422l-0.2255859,0.1142578l-0.065918-0.2822266   c-0.0800781-0.265625-0.3149414-0.4384766-0.6132813-0.4384766c-0.0297852,0-0.0605469,0.0019531-0.0913086,0.0048828   c-0.1835938,0.0332031-0.3525391,0.0390625-0.512207,0.0097656c-0.1674805-0.0234375-0.3339844,0.0146484-0.4121094,0.0742188   c-0.1040039,0.0507813-0.190918,0.1191406-0.2338867,0.1767578l-0.3676758,0.4160156l0.2407227-0.5966797   c0.0795898-0.2109375,0.0825195-0.4111328-0.0263672-0.6669922c-0.0776367-0.1308594-0.1435547-0.3115234-0.190918-0.5146484   c-0.0600586-0.3212891-0.3364258-0.5390625-0.6845703-0.5039063l-0.2319336,0.0322266l0.0063477-0.2695313l0.6982422-0.59375   c0.1289063-0.1054688,0.2304688-0.2597656,0.3183594-0.5136719c0.065918-0.2802734,0.1669922-0.5820313,0.3007813-0.8945313   c0.1049805-0.2470703,0.0957031-0.4980469-0.0024414-0.6464844l-0.2387695-0.4677734l0.3515625-0.609375l0.3896484,0.0449219   C26.1485214,14.1582031,26.324791,14.125,26.4131699,14.0625c0.0708008-0.0292969,0.2080078-0.1298828,0.2583008-0.1875   c0.2143555-0.2431641,0.4384766-0.4609375,0.6826172-0.6630859c0.1499023-0.1347656,0.2583008-0.3164063,0.2900391-0.4677734   l0.1884766-0.8808594l0.2373047-0.1191406l0.0537109,0.2197266c0.0610352,0.3330078,0.3920898,0.5703125,0.7255859,0.4990234   c0.171875-0.0361328,0.3393555-0.0400391,0.4892578-0.0166016c0.105957,0.0214844,0.2685547,0.0224609,0.4355469-0.0722656   c0.0966797-0.0498047,0.1625977-0.1171875,0.2182617-0.1738281l0.3681641-0.4052734l-0.2397461,0.578125   c-0.0986328,0.2617188-0.0742188,0.5205078,0.0410156,0.6738281c0.0874023,0.1630859,0.1625977,0.3027344,0.1821289,0.4296875   c0.015625,0.1826172,0.1069336,0.3505859,0.2504883,0.4609375c0.1069336,0.0830078,0.3212891,0.1357422,0.4545898,0.1210938   l0.2114258-0.0302734L31.2539902,14.3017578z"/><path d="M30.3174667,22.0097656L24.58358,25.3203125c-0.2392578,0.1376953-0.3212891,0.4433594-0.1831055,0.6826172   c0.1392212,0.2403412,0.4466438,0.3206749,0.6831055,0.1826172L30.8174667,22.875   c0.2392578-0.1376953,0.3212891-0.4433594,0.1831055-0.6826172C30.8619003,21.953125,30.5547714,21.8701172,30.3174667,22.0097656z   "/><path d="M31.8882675,43.7060547l0.0180664-2.78125c0.0058594-0.9306641,0.3183594-1.8525391,0.8798828-2.5957031   L41.3889389,26.93927c0.0060425-0.0064697,0.0140991-0.0106201,0.0198364-0.017395   c4.8019714-4.0389061,4.4536285-9.9727421-2.2109375-13.8154297c-1.4596558-0.8390503-3.0999146-1.5087891-4.8690796-2.0083008   l-0.015625-6.6834106c0.0001831-0.0050659,0.0038452-0.0092163,0.0038452-0.0143433   c0.0004883-0.1787109-0.0947266-0.34375-0.2485352-0.4335938l-2.4077148-1.3994141   c-0.1547852-0.0898438-0.3466797-0.0898438-0.5014648,0L18.8750839,9.6591797   c-0.1606884,0.0925283-0.2538719,0.2679615-0.253418,0.4375l0.0020142,0.9894409   c-4.6464815,1.2930737-9.8772488,4.3522377-10.2603149,9.12677c-0.1930542,2.4107056,0.9909058,4.8008423,3.3226929,6.7351074   l3.706604,4.5959473c0.1728516,0.2158203,0.4868164,0.2490234,0.703125,0.0761719   c0.2148438-0.1738281,0.2485352-0.4882813,0.0751953-0.703125l-1.7182617-2.1308594   c3.0543175,1.6007652,6.8688068,2.4562912,10.411499,2.6467285c4.6405468,0.2518883,9.879097-0.5385742,13.9493408-2.7434082   l-6.8251953,9.0361328c-0.6904297,0.9140625-1.074707,2.0478516-1.0820313,3.1933594l-0.0180664,2.7841797   c0,0.5087891-0.3740234,1.0087891-1.0493164,1.4052734c-1.6293945,0.9394531-4.2817383,0.9404297-5.9091797,0.0019531   c-0.6972656-0.4091797-1.081543-0.9189453-1.081543-1.4326172l0.0170898-2.5341797   c0.0078125-1.2324219-0.4130859-2.4384766-1.1865234-3.3974609l-2.7646484-3.4277344   c-0.1728516-0.2158203-0.4887695-0.2490234-0.703125-0.0761719c-0.2148438,0.1738281-0.2485352,0.4882813-0.0751953,0.703125   l2.7646484,3.4277344c0.6289063,0.7802734,0.9711914,1.7617188,0.9648438,2.7646484l-0.0170898,2.5371094   c0,0.8857422,0.5595703,1.7021484,1.5791016,2.3007813c0.9682617,0.5576172,2.2109375,0.8369141,3.4541016,0.8369141   c1.2441406,0,2.4892578-0.2802734,3.4604492-0.8398438C31.3389511,45.3867188,31.8882675,44.5800781,31.8882675,43.7060547z    M34.3669662,26.8991699l-0.0106812-4.1149902c1.1540527,0.3824463,2.204834,0.8485107,3.130127,1.3876953   c0.3835449,0.2243042,0.7329102,0.449585,1.045105,0.6729126c-0.0376587,0.0267944-0.0690918,0.0536499-0.1078491,0.0805054   C37.1985664,25.7761021,35.7772179,26.4300995,34.3669662,26.8991699z M22.1506577,27.7314453   c-0.0286865-0.0048828-0.057373-0.0094604-0.0860596-0.0144653l-0.0341187-15.9361572l11.2845459-6.5147095l0.0143433,6.2016602   c0,0.0010376-0.0006714,0.0018921-0.0006714,0.0029297l0.0060425,2.4750366   c-0.0004883,0.0090332-0.0060425,0.0168457-0.0060425,0.0259399l0.0238647,8.1143799   c-0.0001831,0.0057983-0.0038452,0.0106812-0.0038452,0.0164795c0.0003395,0.1011906,0.0182266,5.4403019,0.0170898,5.1009521   c-0.0186157,0.0050659-0.0372314,0.0098267-0.0558472,0.0148926C30.0611763,28.110981,25.9948502,28.3691578,22.1506577,27.7314453   z M14.4670029,24.7943115c1.24403-0.8953609,2.7286873-1.5727768,4.1802368-2.0462036   c0.000473,0.2254601,0.0092125,4.3900948,0.008667,4.130249C16.8381596,26.266758,15.5263605,25.5579414,14.4670029,24.7943115z    M11.7486191,20.7304688c0-2.9426575,4.0097456-5.1395559,6.8790894-6.0985718l0.0170288,7.074707   c-2.2758789,0.7053833-3.8015366,1.5555763-4.9816895,2.4505615C12.4140244,23.0487061,11.7486191,21.869873,11.7486191,20.7304688   z M19.658287,27.1806641c-0.0367222-16.569622-0.0170593-7.97785-0.034668-16.2167969l1.4067383,0.8144531l0.0336914,15.7519531   c-0.465332-0.0993042-0.9295654-0.2154541-1.3897095-0.3452759C19.6690903,27.1834717,19.6635361,27.1821899,19.658287,27.1806641z    M39.3346176,24.2081299c-0.3966064-0.3009644-0.8349609-0.6025391-1.3442993-0.8995361   c-1.0687866-0.6229858-2.2946777-1.1464844-3.6367188-1.569458l-0.0165405-7.085144   c1.1364136,0.3765259,2.1943359,0.8461914,3.1517944,1.3997192C41.3196449,18.26264,42.713726,21.221756,39.3346176,24.2081299z    M31.408287,3.578125l1.4090576,0.8190918l-11.2861328,6.5143433l-1.4085693-0.8187866L31.408287,3.578125z M9.3604355,20.2919922   c0.3364859-4.2008743,5.1603746-6.9800673,9.2612305-8.1748047l0.00354,1.4715576   c-3.4520245,1.093358-7.8765869,3.5785561-7.8765869,7.1417236c0,4.7362251,7.0774021,7.2975388,12.0561523,8.1152344   c5.3643837,0.7152519,12.6985245-0.1813087,16.8686523-3.6064453c4.2379608-3.4418736,2.9261246-7.3928299-1.6845703-10.0517578   c-1.1018677-0.6367798-2.3375854-1.15271-3.6542358-1.5665894l-0.003479-1.4902344   c1.5869141,0.4686279,3.0534058,1.0865479,4.3681641,1.8429565c5.9844208,3.4499111,6.4160233,8.5627956,2.0195313,12.2216797   c-0.0114746,0.0097046-0.0223999,0.0205078-0.0331421,0.0317993c-6.9513741,5.9258614-21.9229279,5.4003296-28.2998657,0.0062866   C10.2666855,24.4980469,9.1924667,22.3886719,9.3604355,20.2919922z"/><path d="M17.1636581,32.1474609c-0.1733398-0.2148438-0.4882813-0.2490234-0.703125-0.0761719   c-0.2148438,0.1738281-0.2485352,0.4882813-0.0751953,0.703125l0.7861328,0.9746094   c0.1736374,0.2166176,0.4895725,0.2479172,0.703125,0.0761719c0.2148438-0.1738281,0.2485352-0.4882813,0.0751953-0.703125   L17.1636581,32.1474609z"/><path d="M23.330162,47.8896484V50c0,0.2763672,0.2236328,0.5,0.5,0.5s0.5-0.2236328,0.5-0.5v-2.1103516   c0-0.2763672-0.2236328-0.5-0.5-0.5S23.330162,47.6132813,23.330162,47.8896484z"/><path d="M26.465416,47.8896484V50c0,0.2763672,0.2236328,0.5,0.5,0.5s0.5-0.2236328,0.5-0.5v-2.1103516   c0-0.2763672-0.2236328-0.5-0.5-0.5S26.465416,47.6132813,26.465416,47.8896484z"/><path d="M30.6006699,50v-2.1103516c0-0.2763672-0.2236328-0.5-0.5-0.5s-0.5,0.2236328-0.5,0.5V50   c0,0.2763672,0.2236328,0.5,0.5,0.5S30.6006699,50.2763672,30.6006699,50z"/></g><text x="0" y="68" fill="#000000" font-size="5px" font-weight="bold" font-family="'Helvetica Neue', Helvetica, Arial-Unicode, Arial, Sans-serif">Created by Brickclay</text><text x="0" y="73" fill="#000000" font-size="5px" font-weight="bold" font-family="'Helvetica Neue', Helvetica, Arial-Unicode, Arial, Sans-serif">from the Noun Project</text></svg>