<svg xmlns="http://www.w3.org/2000/svg" xmlns:xlink="http://www.w3.org/1999/xlink" version="1.1" x="0px" y="0px" viewBox="0 0 53 53" style="enable-background:new 0 0 53 53;" xml:space="preserve"><g><path d="M2.7331049,38.9966354c0.0004883,0.1777344,0.095207,0.3417969,0.2485352,0.4306641l18.9086914,10.9882813   c0.1395416,0.0811081,0.3035793,0.0874062,0.440918,0.0302734L32.52705,46.2651901   c0.0061646-0.0025024,0.008728-0.0093384,0.0147705-0.012085c0.0385742-0.0174561,0.0774536-0.034729,0.1112061-0.0621338   l7.1890869-5.8436279l10.1258545-4.1514893c0.1884766-0.0771484,0.3110352-0.2602539,0.3105469-0.4638672l-0.0092773-3.3085938   c-0.0004883-0.1665039-0.0834961-0.3217773-0.222168-0.4140625c-0.1001091-0.0666218-16.0740089-9.3546505-16.1747437-9.4042358   c1.0018921-0.328125,2.0128784-0.5184326,3.0619507-0.7134399l0.7329102-0.140625   c0.2705078-0.0561523,0.4443359-0.3212891,0.3881836-0.5913086c-0.0566406-0.2709961-0.3256836-0.4453125-0.5913086-0.3881836   l-0.7207031,0.1386719c-3.6189728,0.6722889-5.8874702,1.4285965-8.3173828,4.1933594V14.9459143   c1.0539551-1.4020996,2.1861572-2.4522095,3.4594727-3.1914673c1.6091423-0.9263039,3.2724304-1.2481794,5.0883789-1.5854492   c1.0651703-0.1986084,1.9016647-0.3596621,2.8588867-0.6526489c1.7039261-0.5216818,3.1636162-1.3419142,4.5038452-2.6081538   c0.0183105-0.0172729,0.0379639-0.0303345,0.0562134-0.0477905c-0.8876953,2.4145503-1.8212891,4.6665034-2.8300781,6.8295894   c-0.090332,0.1933594-0.0478516,0.4223633,0.1054688,0.5708008c1.1733398,1.1362305,2.2514648,1.8789072,3.2734375,2.2514658   c-0.8764648,1.0966797-1.7890625,1.9438477-2.7763672,2.5786133c-0.2324219,0.1494141-0.2993164,0.4584961-0.1499023,0.690918   c0.1489487,0.2322044,0.4592705,0.2993946,0.690918,0.1499023c1.2587891-0.8095703,2.3984375-1.9233398,3.4829102-3.4052734   c0.1015625-0.1381836,0.1245117-0.3188477,0.0620117-0.4785156c-0.0629883-0.1591806-0.2026367-0.2758799-0.3710938-0.3081064   c-0.9775391-0.1875-2.0463867-0.8276367-3.2597656-1.9541016c1.3027344-2.8251953,2.4814453-5.8041987,3.5991211-9.09375   c0.0735397-0.2165365-0.0378609-0.47541-0.2036133-0.581543l-2.0898438-1.3403323   c-0.2226639-0.1416016-0.5166016-0.0869141-0.6733398,0.1254883c-1.1152344,1.5224612-2.3017578,2.6352541-3.6264648,3.402344   c-1.6733398,0.9633789-3.3686523,1.2670898-5.0151367,1.5620117c-1.7314453,0.3227534-3.5214844,0.6557612-5.3188477,1.6904292   c-0.2970581,0.1748657-0.5843506,0.3734741-0.8662109,0.5967407V8.8474035   c0.1751709-0.1204834,0.3426514-0.2543945,0.4960938-0.4078979c1.3663368-1.3663368,1.3661022-3.5699325,0-4.9360352   c-1.3144531-1.315918-3.6152344-1.315918-4.9306641,0c-1.3663654,1.3663657-1.3661022,3.5699332,0,4.9360352   c0.152832,0.152832,0.3198242,0.2858887,0.4941406,0.4060059v14.6699839l-4.0092773,1.6427612   c-0.0361118,0.0147648-0.0903053,0.0462494-0.1259766,0.0751953l-7.1737671,5.8364868L3.0343745,35.2231979   c-0.1858697,0.0764732-0.30233,0.3248024-0.3095703,0.4287109C2.7178049,35.7523575,2.7224832,39.0967674,2.7331049,38.9966354z    M13.3849602,32.0654221c24.465847,14.2159424,15.9574852,9.2721367,17.8144531,10.3511353l-9.0288086,3.7021484   C16.908247,43.0605049,9.6971703,38.869812,4.3530393,35.7640915L13.3849602,32.0654221z M20.7130852,26.2271042   l3.7724609,2.1918945v6.4121094c0,1.2682991,2.1070175,1.7116508,3.2700195,1.0371094   c0.4257813-0.2587891,0.6704102-0.6328125,0.6704102-1.0268555v-4.1316528l10.2722778,5.9604492l-6.4197388,5.2151489   c-1.8453503-1.0721931,6.6578789,3.8683815-17.9746094-10.4436646L20.7130852,26.2271042z M32.8289909,42.7313766   l6.2473755-5.0780029c0.0004883,0.1745415,0.0060234,2.1465492,0.0056763,2.0230713l-6.2473755,5.0780029   C32.8341789,44.5799065,32.8286438,42.6078987,32.8289909,42.7313766z M3.726269,36.5563278l17.9070435,10.4066772   l0.0060425,2.1503296l-17.9072266-10.40625L3.726269,36.5563278z M22.639843,49.2388229l-0.0063477-2.2290039l9.1967773-3.7709961   l0.0063477,2.2290039L22.639843,49.2388229z M40.080761,39.1689987l-0.0063477-2.2290039l9.1967773-3.7705078l0.0063477,2.2290039   L40.080761,39.1689987z M48.6374016,32.3438034l-9.0234375,3.7011719   c-4.456028-2.5855827-6.7082634-3.8924294-11.1879883-6.4917603v-2.8568115   c1.4757805-1.9571934,2.8879128-2.9965096,4.2475586-3.6193237c0.0039673-0.0018921,0.0079956-0.003479,0.0119629-0.0053101   L48.6374016,32.3438034z M29.7956047,10.4146032c1.6445313-0.9467773,3.2739258-1.25,4.9985352-1.5712891   c1.6435547-0.2944336,3.5068359-0.628418,5.3320313-1.679687c1.3344727-0.7724609,2.5322266-1.8549805,3.6503906-3.3012698   l1.2341919,0.7916873c-2.4260635,3.1194444-4.6113358,3.8601327-8.31427,4.5486445   c-1.9166641,0.3567801-3.5941544,0.6973896-5.3115234,1.6860352c-0.9387665,0.5448265-2.046196,1.4321566-2.9589844,2.4648438   v-1.875C28.8727531,11.0420446,29.3234367,10.6924353,29.7956047,10.4146032z M24.6984367,4.2105021   c0.9684143-0.9684136,2.5447102-0.9718916,3.5166016,0c0.9733334,0.9733334,0.9769917,2.5449815,0,3.5219727   c-0.8791256,0.8800082-2.5474281,0.9691739-3.5166016,0C23.7272015,6.7612386,23.7194672,5.1894717,24.6984367,4.2105021z    M27.4259758,9.3174353c0,2.4617071,0.0010357,26.0107269,0.0009766,25.515625   c-0.0053711,0.0195313-0.0507813,0.0957031-0.1816406,0.175293c-0.4189453,0.2421875-1.1513672,0.2421875-1.5664063,0.0009766   c-0.1508789-0.0878906-0.190918-0.1640625-0.1933594-0.1782227c0-5.3366985,0-19.8043633,0-25.5136719   C26.0600147,9.4866838,26.7854309,9.5065126,27.4259758,9.3174353z M24.4855461,24.5962448v2.6665039l-2.690918-1.5639648   L24.4855461,24.5962448z"/><path d="M40.5998039,19.9087448c-0.449707,0.1865234-0.9262695,0.347168-1.4580078,0.4912109   c-0.2666016,0.0722656-0.4238281,0.3466797-0.3515625,0.6132813c0.0737495,0.2734089,0.355854,0.423069,0.6132813,0.3515625   c0.5732422-0.1552734,1.0898438-0.3295898,1.5791016-0.5322266c0.2553711-0.105957,0.3764648-0.3984375,0.2705078-0.6533203   C41.1466789,19.9238815,40.8532219,19.8032761,40.5998039,19.9087448z"/></g><text x="0" y="68" fill="#000000" font-size="5px" font-weight="bold" font-family="'Helvetica Neue', Helvetica, Arial-Unicode, Arial, Sans-serif">Created by Brickclay</text><text x="0" y="73" fill="#000000" font-size="5px" font-weight="bold" font-family="'Helvetica Neue', Helvetica, Arial-Unicode, Arial, Sans-serif">from the Noun Project</text></svg>