<svg xmlns="http://www.w3.org/2000/svg" xmlns:xlink="http://www.w3.org/1999/xlink" version="1.1" x="0px" y="0px" viewBox="0 0 164 164" enable-background="new 0 0 164 164" xml:space="preserve" fill="#6C5CE7"><g><g><path d="M160.2,84.8c0-39-29-72.2-67.5-77.5l-3.2-3.2C85.4,0,78.6,0,74.5,4.1l-3.2,3.2C32.8,12.6,3.8,45.8,3.8,84.8    C3.8,127.7,38.6,163,82,163h0h0c0,0,0,0,0,0C125,163,160.2,128,160.2,84.8z M158.3,84.8c0,21.2-8.7,40.4-22.8,54.3H88.2    c0.5-0.3,0.9-0.7,1.4-1.1l29.7-29.7l0.3-0.3l0.3-0.3l0,0l29-29c4.2-4.2,4.2-10.9,0-15.1l-29.7-29.7L95,9.6    C131.3,15.8,158.3,47.6,158.3,84.8z M82,161.1C82,161.1,82,161.1,82,161.1c-18.6,0-37-6.7-51.5-20.1c2.9,0,60.7,0,103,0    C119.6,153.7,101.3,161.1,82,161.1z M46.8,107.6c8.7-8.7,10.7-10.7,10.9-10.9c1.5-1.5,1.2-4.2-0.8-5.2c-0.8-0.4-1.6-1-2.2-1.8    c-1.9-2.4-1.9-5.9,0-8.3c2.6-3.2,7.2-3.3,9.9-0.6c1.4,1.4,1.4,3,3.6,3.3c1.1,0.2,2.1-0.2,2.8-0.9L82,72.4l4.1,4.1l6.1,6.1l0,0    c0.7,0.7,0.6,0.6,0.6,0.6c0.7,0.7,0.5,1.8-0.3,2.2c-0.7,0.4-1.4,0.9-2,1.5c-3.6,3.6-3.3,9.6,0.8,12.8c3.1,2.5,7.6,2.5,10.7,0    c0.9-0.7,1.7-1.6,2.2-2.6c0.4-0.8,1.5-1,2.2-0.4l10.8,10.8l-29,29c-3.4,3.4-9,3.4-12.4,0L57,117.7L46.8,107.6z M16.5,77.2    c-3.4-3.4-3.4-9,0-12.4l29-29l10.9,10.9l0,0c0.7,0.7,1.7,1.1,2.8,0.9c2.6-0.4,2-2.4,4.7-4.2c2.2-1.5,5.1-1.5,7.3,0    c4.2,2.9,3.9,9.1-0.5,11.4c-1,0.5-1.6,1.4-1.7,2.5c-0.2,1,0.2,2.1,0.9,2.8L80.6,71c-14.8,14.8-10.9,12.1-14.5,8.5    c-3.6-3.6-9.6-3.3-12.8,0.7c-2.5,3.1-2.5,7.6,0,10.7c0.8,1,1.7,1.7,2.8,2.3c0.8,0.4,0.9,1.5,0.3,2.1l-10.9,10.9L16.5,77.2z     M96.4,60.6c0.4,0.7,0.9,1.4,1.5,2c3.8,3.8,10.2,3.3,13.3-1.3c1.9-2.8,1.9-6.6,0-9.5c-0.8-1.3-1.9-2.2-3.2-2.9    c-0.8-0.4-0.9-1.5-0.3-2.1l10.8-10.8l29,29c3.4,3.4,3.4,9,0,12.4l-29,29c-0.3-0.3-10.7-10.7-11-11l0,0l0,0l0,0    c-1.3-1.3-4-1.1-5.1,0.9c-0.4,0.8-1,1.5-1.7,2.1c-2.4,1.9-5.9,1.9-8.3,0c-3.2-2.6-3.4-7.2-0.6-10c1.4-1.4,3-1.5,3.3-3.6    c0.2-1.1-0.2-2.1-0.9-2.8l-0.6-0.6l0,0l0,0l-5.8-5.8L83.4,71l10.8-10.8C94.9,59.5,96,59.7,96.4,60.6z M75.8,5.5    c3.4-3.4,8.9-3.5,12.4,0l29,29C105.7,46,105,46,105.4,48.2c0.2,1,0.8,1.9,1.7,2.4c1,0.5,1.9,1.3,2.5,2.3c1.5,2.2,1.5,5.1,0,7.3    c-2.4,3.6-7.3,4-10.3,1.1c-1.4-1.4-1.4-3-3.6-3.3c-1-0.1-2.1,0.2-2.8,0.9L82,69.7L71.2,58.8c-0.3-0.3-0.5-0.7-0.4-1.2    c0.1-0.5,0.3-0.8,0.8-1.1c5.7-3.1,6.1-11.1,0.7-14.7c-4-2.7-9.8-1.6-12.3,3.1c-0.2,0.4-0.6,0.7-1.1,0.8c-0.4,0.1-0.8-0.1-1.1-0.4    L46.8,34.5L75.8,5.5z M5.7,84.8c0-37.1,27-68.9,63.3-75.2L44.8,33.8L15.1,63.5c-4.2,4.2-4.2,10.9,0,15.1l29.7,29.7c0,0,0,0,0,0    l10.8,10.8l18.8,18.8c0.4,0.4,0.9,0.8,1.4,1.1H28.5C14.4,125.2,5.7,106,5.7,84.8z"/></g><g><path d="M78.8,145.9H55.4c-0.5,0-1,0.4-1,1c0,0.5,0.4,1,1,1h23.4C80.1,147.8,80.1,145.9,78.8,145.9z"/></g><g><path d="M81.6,146.8c0,0.5,0.4,1,1,1h3.9c0.5,0,1-0.4,1-1c0-0.5-0.4-1-1-1C82.8,145.9,81.6,145.6,81.6,146.8z"/></g><g><path d="M89.7,147.8h2.5c0.5,0,1-0.4,1-1c0-0.5-0.4-1-1-1h-2.5c-0.5,0-1,0.4-1,1C88.7,147.4,89.2,147.8,89.7,147.8z"/></g><g><path d="M84.2,151.6c0,0.5,0.4,1,1,1h23.4c0.5,0,1-0.4,1-1c0-0.5-0.4-1-1-1H85.2C84.7,150.6,84.2,151,84.2,151.6z"/></g><g><path d="M81.4,150.6h-3.9c-0.5,0-1,0.4-1,1c0,0.5,0.4,1,1,1h3.9c0.5,0,1-0.4,1-1C82.4,151,82,150.6,81.4,150.6z"/></g><g><path d="M74.3,150.6h-2.5c-0.5,0-1,0.4-1,1c0,0.5,0.4,1,1,1h2.5c0.5,0,1-0.4,1-1C75.3,151,74.8,150.6,74.3,150.6z"/></g></g><text x="0" y="179" fill="#000000" font-size="5px" font-weight="bold" font-family="'Helvetica Neue', Helvetica, Arial-Unicode, Arial, Sans-serif">Created by Vectors Market</text><text x="0" y="184" fill="#000000" font-size="5px" font-weight="bold" font-family="'Helvetica Neue', Helvetica, Arial-Unicode, Arial, Sans-serif">from the Noun Project</text></svg>