<svg xmlns="http://www.w3.org/2000/svg" xmlns:xlink="http://www.w3.org/1999/xlink" version="1.1" x="0px" y="0px" viewBox="0 0 164 164" enable-background="new 0 0 164 164" xml:space="preserve" fill="#6C5CE7"><g><g><path d="M85.8,162.9c42.8-2,77.2-37.5,77.2-80.9c0-44.7-36.3-81-81-81C66.4,1,51.3,5.4,38.3,13.8L34.6,13c-0.1,0-0.3,0-0.4,0    l-25,5.4c-0.5,0.1-0.8,0.5-0.8,1v28.6C3.5,58.7,1,70.1,1,82C1,127.8,39.2,165.1,85.8,162.9z M65.6,63.3v8.2    c-5.9-1-6.4-9.4-0.8-11.2C65,61.1,65.3,62.4,65.6,63.3z M97,20.8c10.8,3.8,14.4,12.2,14.5,12.3c0.2,0.4,0.6,0.7,1.1,0.6    c1-0.2,0.8-1.2,0.8-2.5c4.7,5.4,5.4,13.7,5,20.2c-2.3,0-1.9,0-1.9,5c-0.6-2.5-1-5.3-1.3-7.8C113.4,33.9,118,44,95.3,44    c-7.3,0-15.5-1.3-22.1-3.3c-0.6-0.2-1.3,0.3-1.3,0.9c-0.2,6.7-2,13.5-4.9,19.1c-3-13.1,0.6-26.9,7.4-36.7c1.3,0.9,2.6,2.8,3.1,3.6    c0.5,0.7,1.5,0.6,1.8-0.2c0.7-2.1,0.9-4.2,0.9-5.6c1.1,0.9,2.3,2.3,2.8,2.9c2,2.5,3.2-5.1,3.4-8.3c5.8,3.3,8.9,9.3,8.9,9.4    c0.2,0.4,0.7,0.6,1.2,0.5c0.5-0.1,0.8-0.6,0.7-1L97,20.8z M118.3,75.5h3v6c0,2.9-2.4,5.3-5.3,5.3h-1.7    C116.4,83.4,117.8,79.5,118.3,75.5z M118.4,73.5c0-7.1,0-13.1,0-20.1c1.8,0,2.3,0,4.1,0c1.9,0,3.5,1.6,3.5,3.5    C126.1,74.7,127.1,73.5,118.4,73.5z M67.7,63.5c0.5-1,5.5-8.9,6.2-20.6c6.3,1.8,14.2,3,21.5,3c6.5,0,12.4-1,17.3-2.9    c0.3,6.4,1.5,14.4,3.7,20.4c0,9.5,0.8,15.8-4.5,23.3h-5.3c-0.4-1.6-1.9-2.8-3.7-2.8c-2.1,0-3.8,1.7-3.8,3.8c0,4.4,6.4,5.3,7.5,1    h3.7C105.7,94,99.2,97,92,97c-5.3,0-10.3-1.7-14.6-4.9C66.4,83.8,67.7,73.1,67.7,63.5z M104.7,87.8c0,1-0.8,1.8-1.8,1.8    c-1,0-1.8-0.8-1.8-1.8c0-1,0.8-1.8,1.8-1.8C103.9,86,104.7,86.8,104.7,87.8C104.7,87.8,104.7,87.8,104.7,87.8    C104.7,87.8,104.7,87.8,104.7,87.8z M77.9,94.9C82.3,97.6,87.2,99,92,99c5.2,0,10.2-1.6,14.2-4.1v10.7c0,4.9-7.1,7.5-14.2,7.5    c-7.1,0-14.2-2.6-14.2-7.5V94.9z M92.1,115c7.8,0,16.2-3,16.2-9.5v-3.3h2.5c14.4,0,26.1,11.7,26.1,26.1v9.9H122v-16.8    c0-0.6-0.4-1-1-1c-0.6,0-1,0.4-1,1v16.8H64.1v-16.8c0-0.6-0.4-1-1-1c-0.6,0-1,0.4-1,1v16.8H47.2v-9.9c0-14.4,11.7-26.1,26.1-26.1    h2.6v3.3C75.9,112,84.3,115,92.1,115z M46.2,140.2h89.1c-13.7,12.5-31.2,19.8-49.6,20.7c-21.3,1-41.6-6.5-57.1-20.7H46.2z     M34.4,15l3.8,0.8h0l20.1,4.4v29.4c0,0.2-0.6,16.1-24,26.2c-23.4-10-24-26-24-26.1v-1.3c0,0,0,0,0,0v-28L34.4,15z M8.8,52.3    c1.1,5.3,5.8,17.3,25.2,25.5c0.2,0.1,0.5,0.1,0.8,0c25.1-10.6,25.6-27.4,25.6-28.1V19.4c0-0.5-0.3-0.9-0.8-1l-18.5-4    C53.4,6.9,67.5,3,82,3c43.6,0,79,35.4,79,79c0,21.2-8.4,40.5-22.1,54.7v-8.5c0-15.5-12.6-28.1-28.1-28.1h-2.5v-6.8    c1.7-1.3,3.3-2.9,4.6-4.6h3.1c4,0,7.3-3.3,7.3-7.3v-6c2.7-0.3,4.8-2.7,4.8-5.5V56.9c0-3-2.5-5.5-5.5-5.5h-2.2    c0.5-7.7-0.5-17.6-7.3-23.4c-0.3-0.3-0.7-0.3-1.1-0.1c-0.4,0.2-0.6,0.5-0.6,0.9l0,0.3c-5.5-7.8-15.1-11.3-16.1-10.5    c-0.6,0.5-0.4,1.2-0.3,2.9c-1.8-2.5-4.9-5.7-9.1-7.7c-0.6-0.3-1.4,0.2-1.4,0.9c0,0-0.1,4.2-1.1,7.4c-1-1.1-2.6-2.6-4-3.1    c-0.7-0.3-1.4,0.3-1.3,1.1c0,0,0.3,2.1-0.2,4.7c-1.1-1.3-3.6-4-4.6-2.7c-0.5,0.7-12.2,16-8.8,36.4c-3.3,0.9-5.7,4-5.7,7.5    c0,4,3,7.3,6.9,7.7c0.3,7.8,3.9,15,10.2,19.9v6.8h-2.6c-15.5,0-28.1,12.6-28.1,28.1v9.9H26.6C12,123.9,3,104,3,82    C3,71.7,4.9,61.7,8.8,52.3z"/></g><g><path d="M54.5,147.3h24.2c0.6,0,1-0.4,1-1c0-0.6-0.4-1-1-1H54.5c-0.6,0-1,0.4-1,1C53.5,146.8,53.9,147.3,54.5,147.3z"/></g><g><path d="M82.6,147.3h4c0.6,0,1-0.4,1-1c0-0.6-0.4-1-1-1h-4c-0.6,0-1,0.4-1,1C81.6,146.8,82,147.3,82.6,147.3z"/></g><g><path d="M90,147.3h2.6c0.6,0,1-0.4,1-1c0-0.6-0.4-1-1-1H90c-0.6,0-1,0.4-1,1C89,146.8,89.4,147.3,90,147.3z"/></g><g><path d="M84.3,151.2c0,0.6,0.4,1,1,1h24.2c0.6,0,1-0.4,1-1c0-0.6-0.4-1-1-1H85.3C84.8,150.2,84.3,150.6,84.3,151.2z"/></g><g><path d="M76.4,151.2c0,0.6,0.4,1,1,1h4c0.6,0,1-0.4,1-1c0-0.6-0.4-1-1-1h-4C76.9,150.2,76.4,150.6,76.4,151.2z"/></g><g><path d="M74,150.2h-2.6c-0.6,0-1,0.4-1,1c0,0.6,0.4,1,1,1H74c0.6,0,1-0.4,1-1C75,150.6,74.6,150.2,74,150.2z"/></g><g><path d="M83.9,79.6c-0.1-0.5-0.7-0.9-1.2-0.7c-0.5,0.1-0.9,0.7-0.7,1.2c1.2,4.6,5.3,7.8,10.1,7.8c4.8,0,8.9-3.2,10.1-7.8    c0.1-0.5-0.2-1.1-0.7-1.2c-0.5-0.1-1.1,0.2-1.2,0.7c-1,3.7-4.3,6.3-8.2,6.3C88.2,85.9,84.9,83.3,83.9,79.6z"/></g><g><path d="M92.8,74.4c0.6,0,1-0.4,1-1c0-0.6-0.4-1-1-1c-1,0-1.8-0.8-1.8-1.8c0-1,0.8-1.8,1.8-1.8c0.6,0,1-0.4,1-1c0-0.6-0.4-1-1-1    c-2.1,0-3.8,1.7-3.8,3.8C89,72.7,90.7,74.4,92.8,74.4z"/></g><g><path d="M103.9,59.1c-2,0-3.6,1.6-3.6,3.6c0,2,1.6,3.6,3.6,3.6s3.6-1.6,3.6-3.6C107.5,60.7,105.9,59.1,103.9,59.1z M103.9,64.3    c-0.9,0-1.6-0.7-1.6-1.6c0-0.9,0.7-1.6,1.6-1.6c0.9,0,1.6,0.7,1.6,1.6C105.5,63.6,104.8,64.3,103.9,64.3z"/></g><g><path d="M99.9,57.8c0.8-1,2.3-1.7,4-1.7h0c1.7,0,3.3,0.6,4,1.7c0.2,0.3,0.5,0.4,0.8,0.4c0.2,0,0.4-0.1,0.6-0.2    c0.4-0.3,0.5-1,0.2-1.4c-1.1-1.5-3.2-2.5-5.6-2.5h0c-2.4,0-4.5,0.9-5.6,2.5c-0.3,0.4-0.2,1.1,0.2,1.4    C98.9,58.4,99.6,58.3,99.9,57.8z"/></g><g><path d="M83.8,62.7c0-2-1.6-3.6-3.6-3.6s-3.6,1.6-3.6,3.6c0,2,1.6,3.6,3.6,3.6S83.8,64.7,83.8,62.7z M80.2,64.3    c-0.9,0-1.6-0.7-1.6-1.6c0-0.9,0.7-1.6,1.6-1.6c0.9,0,1.6,0.7,1.6,1.6C81.8,63.6,81.1,64.3,80.2,64.3z"/></g><g><path d="M76.2,57.8c0.8-1,2.3-1.7,4-1.7h0c1.7,0,3.3,0.6,4,1.7c0.2,0.3,0.5,0.4,0.8,0.4c0.2,0,0.4-0.1,0.6-0.2    c0.4-0.3,0.5-1,0.2-1.4c-1.1-1.5-3.2-2.5-5.6-2.5h0c-3.9,0-6.9,2.7-5.4,3.9C75.2,58.4,75.8,58.3,76.2,57.8z"/></g><g><path d="M34,72.3c0.1,0.1,0.3,0.1,0.4,0.1c0.1,0,0.3,0,0.4-0.1c8.1-3.7,14-8.5,17.5-14.2c2.8-4.6,3.1-8.1,3.1-8.5V23.5    c0-0.5-0.3-0.9-0.8-1l-20-4.3c-0.1,0-0.3,0-0.4,0l-20,4.3c-0.5,0.1-0.8,0.5-0.8,1v26.1C13.4,49.7,14,63,34,72.3z M15.4,24.3    l19-4.1l19,4.1l0,25.2c0,0.1-0.2,3.3-2.8,7.5c-3.2,5.3-8.7,9.7-16.2,13.3c-18.2-8.6-19-20.6-19-20.7V24.3z"/></g></g><text x="0" y="179" fill="#000000" font-size="5px" font-weight="bold" font-family="'Helvetica Neue', Helvetica, Arial-Unicode, Arial, Sans-serif">Created by Vectors Market</text><text x="0" y="184" fill="#000000" font-size="5px" font-weight="bold" font-family="'Helvetica Neue', Helvetica, Arial-Unicode, Arial, Sans-serif">from the Noun Project</text></svg>