<svg xmlns="http://www.w3.org/2000/svg" xmlns:xlink="http://www.w3.org/1999/xlink" version="1.1" x="0px" y="0px" viewBox="0 0 164 164" enable-background="new 0 0 164 164" xml:space="preserve" fill="#6C5CE7"><g><g><path d="M163,82c0-20-7.4-39.1-20.8-53.8h13.1c0.5,0,1-0.4,1-1c0-6-4.9-10.9-11-10.9h-16.6C115.2,6.9,99.4,1.9,82.9,1.9    C38.8,1.9,2.8,37.8,2.8,82c0,2.7,0.1,5.4,0.4,8.1l-1.5,0.4c-0.4,0.1-0.7,0.5-0.7,1v11.7c0,0.4,0.3,0.8,0.7,1l4.6,1.3    c1.3,4.2,2.9,8.4,5,12.4l-2.2,4c-0.2,0.4-0.1,0.9,0.2,1.2l8.3,8.3c0.3,0.3,0.8,0.4,1.2,0.2l0.9-0.5c15.7,20.3,39.1,31.1,63.3,31.1    c0,0,0,0,0,0c0,0,0,0,0,0c0,0,0,0,0,0c0,0,0,0,0,0C126.9,162.1,163,126.3,163,82z M161,82c0,21.7-8.9,41.4-23.3,55.6h-6.1    c2.9-2,4.9-5.3,4.9-9.1V28.2h3C153.4,42.8,161,61.8,161,82z M82.9,160.1C82.9,160.1,82.9,160.1,82.9,160.1    C82.9,160.1,82.9,160.1,82.9,160.1c-19.7,0-38.3-7.3-52.8-20.6h7.2H49h86.6C120.9,153.1,102,160.1,82.9,160.1z M70.7,129.5h44    c0.3,3.1,2,6.1,4.6,7.9H50.4l2-6.9c2.7-0.7,5.3-1.8,7.8-3.2l7.6,4.2c0.4,0.2,0.9,0.1,1.2-0.2L70.7,129.5z M154.3,26.2    c-29.8,0-10.6,0-17.8,0C137.7,15.7,153.1,15.7,154.3,26.2z M134.5,27.2v101.3c0,4.9-4,8.9-8.9,8.9c-4.9,0-8.9-4-8.9-8.9    c0-1.4,1.6-1-43.9-1l4.4-4.4c0.3-0.3,0.4-0.8,0.2-1.2l-4.2-7.6c1.4-2.5,2.5-5.1,3.2-7.8l8.3-2.4c0.4-0.1,0.7-0.5,0.7-1V91.5    c0-0.4-0.3-0.8-0.7-1l-8.3-2.4c-0.7-2.7-1.8-5.3-3.2-7.8l4.2-7.6c0.2-0.4,0.1-0.9-0.2-1.2l-8.3-8.3c-0.3-0.3-0.8-0.4-1.2-0.2    l-7.6,4.2c-2.5-1.4-5.1-2.5-7.8-3.2L50,55.9c-0.1-0.4-0.5-0.7-1-0.7h-1.6v-28c0-4.9,4-8.9,8.9-8.9h82.8    C136.1,20.4,134.5,23.9,134.5,27.2z M4.8,82c0-43.1,35-78.1,78.1-78.1c15.1,0,29.7,4.3,42.2,12.4H56.4c-6,0-10.9,4.9-10.9,10.9v28    h-8.2c-0.4,0-0.8,0.3-1,0.7L34,64.2c-2.7,0.7-5.3,1.8-7.8,3.2l-7.6-4.2c-0.4-0.2-0.9-0.1-1.2,0.2l-8.3,8.3    c-0.3,0.3-0.4,0.8-0.2,1.2l4.2,7.6c-1.4,2.5-2.5,5.1-3.2,7.8l-4.9,1.4C4.9,87.1,4.8,84.5,4.8,82z M8.6,106.1l1.4,0.4    c0.7,2.7,1.8,5.3,3.2,7.8l-0.8,1.4C11,112.6,9.7,109.4,8.6,106.1z M18.4,129.4l-7.2-7.2l4.1-7.4c0.2-0.3,0.2-0.7,0-1    c-1.5-2.6-2.7-5.4-3.4-8.3c-0.1-0.3-0.3-0.6-0.7-0.7L3,102.5V92.2l8.2-2.3c0.3-0.1,0.6-0.4,0.7-0.7c0.7-2.9,1.9-5.7,3.4-8.3    c0.2-0.3,0.2-0.7,0-1l-4.1-7.4l7.2-7.2l7.4,4.1c0.3,0.2,0.7,0.2,1,0c2.6-1.5,5.4-2.7,8.3-3.4c0.3-0.1,0.6-0.3,0.7-0.7l2.3-8.2    h10.2l2.3,8.2c0.1,0.3,0.4,0.6,0.7,0.7c2.9,0.7,5.7,1.9,8.3,3.4c0.3,0.2,0.7,0.2,1,0l7.4-4.1l7.2,7.2l-4.1,7.4    c-0.2,0.3-0.2,0.7,0,1c1.5,2.6,2.7,5.4,3.4,8.3c0.1,0.3,0.3,0.6,0.7,0.7l8.2,2.3v10.2l-8.2,2.3c-0.3,0.1-0.6,0.4-0.7,0.7    c-0.7,2.9-1.9,5.7-3.4,8.3c-0.2,0.3-0.2,0.7,0,1l4.1,7.4l-5.6,5.6c0,0,0,0,0,0l-1.6,1.6l-7.4-4.1c-0.3-0.2-0.7-0.2-1,0    c-2.6,1.5-5.4,2.7-8.3,3.4c-0.3,0.1-0.6,0.3-0.7,0.7l-2.3,8.2H38.1l-2.3-8.2c-0.1-0.3-0.4-0.6-0.7-0.7c-2.9-0.7-5.7-1.9-8.3-3.4    c-0.3-0.2-0.7-0.2-1,0L18.4,129.4z M26.3,127.3c2.5,1.4,5.1,2.5,7.8,3.2l2,7.1h-8c-2.4-2.4-4.6-4.9-6.7-7.6L26.3,127.3z"/></g><g><path d="M55.7,146.5h24c0.5,0,1-0.4,1-1c0-0.5-0.4-1-1-1h-24c-0.5,0-1,0.4-1,1C54.7,146.1,55.1,146.5,55.7,146.5z"/></g><g><path d="M83.5,146.5h3.9c0.5,0,1-0.4,1-1c0-0.5-0.4-1-1-1h-3.9c-0.5,0-1,0.4-1,1C82.5,146.1,82.9,146.5,83.5,146.5z"/></g><g><path d="M90.8,146.5h2.6c0.5,0,1-0.4,1-1c0-0.5-0.4-1-1-1h-2.6c-0.5,0-1,0.4-1,1C89.8,146.1,90.3,146.5,90.8,146.5z"/></g><g><path d="M85.2,150.4c0,0.5,0.4,1,1,1h24c0.5,0,1-0.4,1-1c0-0.5-0.4-1-1-1h-24C85.6,149.4,85.2,149.8,85.2,150.4z"/></g><g><path d="M77.4,150.4c0,0.5,0.4,1,1,1h3.9c0.5,0,1-0.4,1-1c0-0.5-0.4-1-1-1h-3.9C77.9,149.4,77.4,149.8,77.4,150.4z"/></g><g><path d="M75,149.4h-2.6c-0.5,0-1,0.4-1,1c0,0.5,0.4,1,1,1H75c0.5,0,1-0.4,1-1C76,149.8,75.6,149.4,75,149.4z"/></g><g><path d="M69,97.4c0-14.2-11.6-25.8-25.8-25.8c-14.2,0-25.8,11.6-25.8,25.8c0,14.2,11.6,25.8,25.8,25.8    C57.4,123.2,69,111.6,69,97.4z M19.3,97.4c0-13.2,10.7-23.9,23.9-23.9c13.2,0,23.9,10.7,23.9,23.9c0,13.2-10.7,23.9-23.9,23.9    C30,121.2,19.3,110.5,19.3,97.4z"/></g><g><path d="M43.2,101c2,0,3.7-1.6,3.7-3.7c0-1.7-1.1-3.1-2.7-3.5V78.7c0-0.5-0.4-1-1-1c-0.5,0-1,0.4-1,1v15.1    c-1.5,0.4-2.7,1.8-2.7,3.5c0,0.6,0.2,1.2,0.4,1.7l-10.3,10.3c-0.4,0.4-0.4,1,0,1.4c0.2,0.2,0.4,0.3,0.7,0.3c0.3,0,0.5-0.1,0.7-0.3    l10.2-10.2C41.9,100.8,42.5,101,43.2,101z M43.2,95.7c0.9,0,1.7,0.8,1.7,1.7S44.1,99,43.2,99c-0.9,0-1.7-0.8-1.7-1.7    S42.3,95.7,43.2,95.7z"/></g><g><path d="M118.7,40.6c-0.5,0-1,0.4-1,1v29.1c0,0.5,0.4,1,1,1h6.9c0.5,0,1-0.4,1-1V41.6c0-0.5-0.4-1-1-1H118.7z M124.6,69.7h-4.9    V42.6h4.9V69.7z"/></g><g><path d="M114.2,71.7c0.5,0,1-0.4,1-1V48c0-0.5-0.4-1-1-1h-6.9c-0.5,0-1,0.4-1,1v22.7c0,0.5,0.4,1,1,1H114.2z M108.3,49h4.9v20.8    h-4.9V49z"/></g><g><path d="M96,71.7h6.9c0.5,0,1-0.4,1-1V52.9c0-0.5-0.4-1-1-1H96c-0.5,0-1,0.4-1,1v17.8C95,71.2,95.5,71.7,96,71.7z M97,53.9h4.9    v15.8H97V53.9z"/></g><g><path d="M91.6,55.8h-6.9c-0.5,0-1,0.4-1,1v13.9c0,0.5,0.4,1,1,1h6.9c0.5,0,1-0.4,1-1V56.8C92.6,56.3,92.1,55.8,91.6,55.8z     M90.6,69.7h-4.9V57.8h4.9V69.7z"/></g><g><path d="M81.7,50.2c16.5-0.5,29.8-9.5,38.2-17.2l2.8,2.8c0.3,0.3,0.7,0.4,1,0.2c0.4-0.1,0.6-0.4,0.7-0.8l1.3-10.6    c0-0.3-0.1-0.6-0.3-0.8c-0.2-0.2-0.5-0.3-0.8-0.3l-10.6,1.3c-0.4,0-0.7,0.3-0.8,0.7c-0.1,0.4,0,0.8,0.2,1l2.6,2.6    c-7.7,7.1-19.8,15.2-34.6,15.6c-1.5,0-2.7,1.3-2.6,2.8C78.8,49.3,80.5,50.4,81.7,50.2z M81.5,46.8c15.9-0.4,28.7-9.4,36.6-16.9    c0.2-0.2,0.3-0.4,0.3-0.7c0-0.3-0.1-0.5-0.3-0.7l-1.9-1.9l7.3-0.9l-0.9,7.3l-2-2c-0.4-0.4-1-0.4-1.4,0    c-8.1,7.6-21.2,16.9-37.6,17.3c0,0-0.1,0-0.1,0c-0.4,0-0.6-0.3-0.6-0.7C80.8,47.1,81.1,46.8,81.5,46.8z"/></g><g><path d="M115.6,103.1c-2,0-3.6,0.7-5,2.2c-1.3,1.4-2,3.1-2,5.1c0,2,0.7,3.7,2,5.1c1.3,1.4,3,2.1,4.9,2.1c2,0,3.6-0.7,5-2.2    c1.3-1.4,2-3.1,2-5.1c0-2-0.7-3.7-2-5.1C119.2,103.8,117.6,103.1,115.6,103.1z M119.1,114.1c-1,1-2.1,1.5-3.5,1.5    c-1.4,0-2.6-0.5-3.5-1.5c-1-1-1.4-2.3-1.4-3.7c0-1.5,0.5-2.7,1.4-3.8c1-1,2.1-1.5,3.5-1.5c1.4,0,2.6,0.5,3.5,1.5    c1,1,1.4,2.3,1.4,3.7C120.5,111.8,120.1,113.1,119.1,114.1z"/></g><g><path d="M115.6,106.7c-0.9,0-1.8,0.4-2.4,1.2c-0.6,0.7-0.8,1.6-0.8,2.6c0,1,0.3,1.9,0.9,2.6c0.6,0.8,1.5,1.2,2.4,1.2    c0.9,0,1.8-0.4,2.4-1.2c0.6-0.7,0.8-1.6,0.8-2.6c0-1-0.3-1.9-0.9-2.6C117.4,107.1,116.5,106.7,115.6,106.7z M116.5,111.9    c-0.2,0.3-0.5,0.4-0.8,0.4c-0.3,0-0.6-0.1-0.9-0.4c-0.3-0.4-0.4-0.8-0.4-1.4c0-0.6,0.1-1,0.4-1.4c0.2-0.3,0.5-0.4,0.8-0.4    c0.2,0,0.5,0.1,0.9,0.4c0.3,0.4,0.4,0.8,0.4,1.4C116.9,111.1,116.8,111.5,116.5,111.9z"/></g><g><path d="M95,99.6c1.3,1.4,3,2.1,4.9,2.1c2,0,3.6-0.7,5-2.2c1.3-1.4,2-3.1,2-5.1c0-2-0.7-3.7-2-5.1c-1.3-1.4-3-2.1-4.9-2.1    c-2,0-3.6,0.7-5,2.2c-1.3,1.4-2,3.1-2,5.1C93.1,96.5,93.7,98.2,95,99.6z M96.5,90.7c1-1,2.1-1.5,3.5-1.5c1.4,0,2.6,0.5,3.5,1.5    c1,1,1.4,2.3,1.4,3.7c0,1.5-0.5,2.7-1.4,3.8c-1,1-2.1,1.5-3.5,1.5c-1.4,0-2.6-0.5-3.5-1.5c-1-1-1.4-2.3-1.4-3.7    C95.1,93,95.5,91.8,96.5,90.7z"/></g><g><path d="M121.1,88.4c-0.2-0.3-0.5-0.5-0.9-0.5h-5.1c-0.3,0-0.6,0.2-0.8,0.4l-20.1,27.5c-0.2,0.3-0.3,0.7-0.1,1    c0.2,0.3,0.5,0.5,0.9,0.5h5.1c0.3,0,0.6-0.2,0.8-0.4L121,89.5C121.2,89.2,121.3,88.8,121.1,88.4z M99.6,115.3H97l18.7-25.5h2.6    L99.6,115.3z"/></g><g><path d="M100,98.3c0.9,0,1.8-0.4,2.4-1.2c0.6-0.7,0.8-1.6,0.8-2.6c0-1-0.3-1.9-0.9-2.6c-0.6-0.8-1.5-1.2-2.4-1.2    c-0.9,0-1.8,0.4-2.4,1.2c-0.6,0.7-0.8,1.6-0.8,2.6c0,1,0.3,1.9,0.9,2.6C98.3,97.9,99.1,98.3,100,98.3z M99.1,93.2    c0.2-0.3,0.5-0.4,0.8-0.4c0.3,0,0.6,0.1,0.9,0.4c0.3,0.4,0.4,0.8,0.4,1.3c0,0.6-0.1,1-0.4,1.4c-0.2,0.3-0.5,0.4-0.8,0.4    c-0.3,0-0.6-0.1-0.9-0.4c-0.3-0.4-0.4-0.8-0.4-1.4C98.7,94,98.8,93.5,99.1,93.2z"/></g><g><path d="M63,37.3v6.1c-1.1-0.4-1.9-1.3-2.1-2.5c-0.1-0.5-0.6-0.9-1.1-0.8c-0.5,0.1-0.9,0.6-0.8,1.1c0.3,2.1,2,3.8,4,4.2v0.2    c0,0.5,0.4,1,1,1c0.5,0,1-0.4,1-1v-0.2c2.1-0.4,3.7-2.1,4-4.2c0-0.2,0.1-0.5,0.1-0.8c0-2.5-1.8-4.5-4.1-5v-6.1    c1.1,0.4,1.9,1.3,2.1,2.5c0.1,0.5,0.6,0.9,1.1,0.8c0.5-0.1,0.9-0.6,0.8-1.1c-0.3-2.1-2-3.8-4-4.2v-0.2c0-0.5-0.4-1-1-1    c-0.5,0-1,0.4-1,1v0.2c-2.1,0.4-3.7,2.1-4,4.2c0,0.2-0.1,0.5-0.1,0.7C58.9,34.7,60.6,36.8,63,37.3z M67.1,40.4c0,0.2,0,0.3,0,0.5    c-0.2,1.2-1,2.1-2.1,2.5v-5.8C66.2,37.9,67.1,39.1,67.1,40.4z M60.9,31.8c0.2-1.2,1-2.1,2.1-2.5v5.8c-1.2-0.4-2.1-1.6-2.1-2.9    C60.9,32.1,60.9,32,60.9,31.8z"/></g></g><text x="0" y="179" fill="#000000" font-size="5px" font-weight="bold" font-family="'Helvetica Neue', Helvetica, Arial-Unicode, Arial, Sans-serif">Created by Vectors Market</text><text x="0" y="184" fill="#000000" font-size="5px" font-weight="bold" font-family="'Helvetica Neue', Helvetica, Arial-Unicode, Arial, Sans-serif">from the Noun Project</text></svg>