<svg xmlns="http://www.w3.org/2000/svg" xmlns:xlink="http://www.w3.org/1999/xlink" version="1.1" width="100" height="100"
  viewBox="0 0 164 164" enable-background="new 0 0 164 164" xml:space="preserve">
  <g>
    <g>
      <path
        d="M79.9,143.7c0-0.5-0.4-0.9-0.9-0.9H56.7c-0.5,0-0.9,0.4-0.9,0.9c0,0.5,0.4,0.9,0.9,0.9H79    C79.5,144.6,79.9,144.2,79.9,143.7z" />
    </g>
    <g>
      <path
        d="M87.2,143.7c0-0.5-0.4-0.9-0.9-0.9h-3.7c-0.5,0-0.9,0.4-0.9,0.9c0,0.5,0.4,0.9,0.9,0.9h3.7    C86.7,144.6,87.2,144.2,87.2,143.7z" />
    </g>
    <g>
      <path
        d="M89.4,144.6h2.4c0.5,0,0.9-0.4,0.9-0.9c0-0.5-0.4-0.9-0.9-0.9h-2.4c-0.5,0-0.9,0.4-0.9,0.9    C88.5,144.2,88.9,144.6,89.4,144.6z" />
    </g>
    <g>
      <path
        d="M107.4,147.3H85.1c-0.5,0-0.9,0.4-0.9,0.9c0,0.5,0.4,0.9,0.9,0.9h22.3c0.5,0,0.9-0.4,0.9-0.9    C108.3,147.7,107.9,147.3,107.4,147.3z" />
    </g>
    <g>
      <path
        d="M81.5,147.3h-3.7c-0.5,0-0.9,0.4-0.9,0.9c0,0.5,0.4,0.9,0.9,0.9h3.7c0.5,0,0.9-0.4,0.9-0.9    C82.4,147.7,82,147.3,81.5,147.3z" />
    </g>
    <g>
      <path
        d="M74.7,147.3h-2.4c-0.5,0-0.9,0.4-0.9,0.9c0,0.5,0.4,0.9,0.9,0.9h2.4c0.5,0,0.9-0.4,0.9-0.9    C75.6,147.7,75.2,147.3,74.7,147.3z" />
    </g>
    <g>
      <path
        d="M82,55.3c-17,0-30.9,13.8-30.9,30.9S65,117,82,117c17,0,30.9-13.8,30.9-30.9S99.1,55.3,82,55.3z M82,115.1    c-16,0-29-13-29-29s13-29,29-29c16,0,29,13,29,29S98,115.1,82,115.1z" />
    </g>
    <g>
      <path
        d="M93.5,86.5c-1.9-1.6-4.9-2.9-9.1-3.9h-0.2V72.5c2.8,0.4,5.3,1.4,7.7,3.1l3.5-4.9c-3.5-2.4-7.2-3.7-11.1-4v-2.7h-3.4v2.7    c-3.5,0.2-6.3,1.3-8.4,3.2c-2.2,2-3.2,4.5-3.2,7.6c0,3.1,0.9,5.4,2.8,7c1.9,1.6,4.8,2.8,8.9,3.8v10.4c-3.2-0.5-6.3-2.1-9.3-4.7    l-3.9,4.7c3.9,3.4,8.3,5.3,13.2,5.8v3.9h3.4v-3.9c3.6-0.2,6.6-1.3,8.8-3.2c2.2-2,3.3-4.5,3.3-7.6S95.4,88.1,93.5,86.5z M80.9,81.6    c-2-0.6-3.4-1.3-4.1-2c-0.7-0.7-1.1-1.6-1.1-2.8c0-1.2,0.5-2.2,1.4-3c0.9-0.8,2.2-1.3,3.8-1.4V81.6z M88.4,97.2    c-1,0.8-2.4,1.3-4.1,1.5v-9.6c2.1,0.6,3.6,1.3,4.4,2.1c0.8,0.7,1.2,1.7,1.2,3C89.9,95.4,89.4,96.4,88.4,97.2z" />
    </g>
    <g>
      <path
        d="M156.4,77.1c-0.1-0.1-0.2-0.1-0.3-0.2c-0.5-4.8-1.4-9.5-2.8-14c1.9-3.2,2.6-6.9,1.8-10.6c-1.3-6.7-6.8-11.6-13.4-12.2    c-3.1-4.2-6.7-8.1-10.7-11.5c0-0.6-0.1-1.2-0.2-1.9c-0.8-4-3-7.4-6.4-9.6c-3.1-2.2-7.2-3.1-11.1-2.4c-1.1,0.2-2.2,0.5-3.2,0.9    c-5.2-2.1-10.6-3.6-16.1-4.5c-5.4-7.3-15.4-8.4-22.4-1.9c-0.6,0.6-1.2,1.2-1.7,1.9C64.5,12,59.1,13.5,54,15.6    c-6.3-2.7-14.2-0.7-18.4,5.5C34,23.4,33.2,26,33,28.6c-4,3.5-7.6,7.4-10.7,11.6c-4.7,0.5-8.6,2.9-11,6.6    C8,51.6,7.9,57.9,10.8,62.9C9.4,67.4,8.5,72.2,8,77c-0.7,0.5-1.5,1.1-2.1,1.7c-4.5,4.2-7,11.8-2.5,19c1.6,2.6,3.9,4.5,6.6,5.7    c1.1,4.1,2.5,8.2,4.3,12.1c-2.8,4.8-2.7,10.8,0.3,15.6c2.7,4.4,7.4,7,12.6,7.1c0.1,0,0.2,0,0.2,0c0.9,0,1.8-0.1,2.6-0.2    c14,13.7,32.4,21.2,52,21.2c19.6,0,38-7.5,52-21.2c6.1,1.1,11.9-1.6,15.2-6.4c3.3-4.9,3.4-11,0.6-16c1.8-3.9,3.2-8,4.3-12.1    c4.9-2.2,8.3-6.9,8.8-12.3C163.5,85.4,161,80.2,156.4,77.1z M132.8,87.9l-12.4-0.6c0-0.4,0-0.7,0-1.1c0-6.2-1.5-12-4.1-17.2    l11-5.8c5.4,8.8,17.9,9.7,24.5,1.7c1,3.6,1.8,7.3,2.2,11C144.9,71.6,134,77.7,132.8,87.9z M40.4,115.3l10.3-7    c7,9.8,18.4,16.2,31.3,16.2c12.9,0,24.3-6.4,31.3-16.2l10.3,7c-4.3,7.3-1.7,16.9,5.8,20.9H34.6C42,132.3,44.8,122.9,40.4,115.3z     M82,122.7c-20.2,0-36.6-16.4-36.6-36.6C45.5,66,61.9,49.5,82,49.5c0,0,0,0,0,0c0,0,0,0,0,0c20.2,0,36.6,16.4,36.6,36.6    C118.6,106.3,102.2,122.7,82,122.7z M153.3,52.6c0.7,3.5,0,7-2,10c0,0,0,0,0,0c-2.4,3.6-6.5,5.9-11.2,5.8    c-10.8-0.2-16.6-12.1-10.8-20.7C135.9,37.9,151.1,41.1,153.3,52.6z M139.4,40.1c-10.8,0.7-17.2,11.8-12.9,21.4l-11,5.8    c-3.1-5.5-7.6-10.2-12.9-13.6L109,43c6.8,3.5,15.2,1.5,19.5-4.9c1.4-2.1,2.3-4.5,2.5-7C134.1,33.8,136.9,36.9,139.4,40.1z     M113.7,16.5c3.5-0.6,7,0.1,9.7,2.1c6.1,4.1,7.7,12.3,3.6,18.4c0,0,0,0,0,0c-5.3,7.9-17.1,7.8-22.3-0.4    C99.8,28.7,104.4,18.2,113.7,16.5z M108,16.8c-9.2,5.7-9.6,19.1-0.6,25.3L101,52.7c-5.4-3.1-11.5-4.9-18.1-5V35.3    c10.8-0.6,17.5-12.3,12.5-22C99.7,14,104,15.2,108,16.8z M73,10.6c2.4-2.2,5.7-3.8,9.2-3.8c10.2,0,16.8,11.9,10.8,20.8    c0,0,0,0,0,0c-2.5,3.7-6.6,5.8-11,5.8c-0.1,0-0.1,0-0.2,0c-4.5-0.1-8.7-2.4-11.1-6.2C66.5,20.4,69.3,14,73,10.6z M68.7,13.2    c-2.3,4.2-2.8,9.7,0.6,15c2.6,4.2,7,6.8,11.9,7.1v12.5c-6.6,0.2-12.7,2-18.1,5l-6.4-10.7c8.5-5.9,9.2-18.9-0.6-25.3    C60.1,15.2,64.4,14,68.7,13.2z M37.1,22.2c6.5-9.7,21.8-6.8,24,4.9c0.7,3.5,0,7-2,10c0,0,0,0,0,0c-5.4,8-17.1,7.7-22.3-0.4    C34.1,32.2,34.1,26.5,37.1,22.2z M33.1,31c1,10.7,12.5,16.9,22,12l6.4,10.7c-5.3,3.4-9.8,8.1-12.9,13.6l-11-5.9    c1.3-2.8,1.7-6,1.1-9.2c-1.3-6.8-7.1-11.8-13.9-12.2C27.2,36.8,30,33.8,33.1,31z M12.8,47.7c6.6-9.8,21.8-6.7,24,4.9    c0.7,3.5,0,7-2,10c0,0,0,0,0,0c-2.5,3.7-6.7,5.9-11.2,5.8c-4.5-0.1-8.7-2.4-11.1-6.2C9.8,57.8,9.9,52.1,12.8,47.7z M12.2,64.8    c6.5,7.8,19,7.3,24.5-1.8l11,5.9c-2.6,5.2-4.1,11-4.1,17.2c0,0.4,0,0.7,0,1.1l-12.4,0.7c0-0.4-0.1-0.8-0.2-1.2    C29.3,77.9,19.5,71.2,10,75.8C10.4,72.1,11.2,68.4,12.2,64.8z M4.9,96.6c-4.2-6.8-1.5-13.2,2.2-16.7c2.4-2.2,5.7-3.8,9.2-3.8    c5.6,0,11.6,4.2,12.9,10.9c0.7,3.5,0,7-2,10c0,0,0,0,0,0c-2.5,3.7-6.6,5.8-11,5.8c-0.1,0-0.1,0-0.2,0    C11.5,102.8,7.3,100.4,4.9,96.6z M16,104.7c0.1,0,0.2,0,0.2,0c8.4,0,15-6.8,15.1-15l12.4-0.7c0.5,6.5,2.6,12.6,6,17.8l-10.3,7    c-6.2-8.1-18-7.7-23.9-0.1c-1.4-3.1-2.5-6.3-3.4-9.6C13.3,104.5,14.6,104.7,16,104.7z M27.2,136.3c-4.5-0.1-8.7-2.4-11.1-6.2    c-2.8-4.4-2.7-10.1,0.2-14.5c2-3,5.1-5,8.7-5.6c11.5-2.1,19.9,10.8,13.3,20.5c0,0,0,0,0,0C35.9,134.2,31.7,136.3,27.2,136.3z     M33,138.1h98.1c-13.4,12.3-30.7,19.1-49.1,19.1C63.7,157.2,46.4,150.5,33,138.1z M147.7,130.4    C147.7,130.4,147.7,130.4,147.7,130.4c-5.4,8-17.2,7.7-22.3-0.4c-4.8-7.6,0.3-14.6,0.2-14.5c0,0,0,0,0,0    c4.3-6.3,12.9-7.5,18.4-3.6C150.2,116.1,151.8,124.3,147.7,130.4z M145.2,110.5c-6-4.3-15.4-3.3-20.5,3.3l-10.3-7    c3.3-5.2,5.5-11.3,6-17.8l12.4,0.6c0.1,9.3,9.2,17.3,19.2,14.4c-0.9,3.2-2,6.4-3.4,9.5C147.6,112.4,146.5,111.4,145.2,110.5z     M134.6,88.7c0.7-10,11.9-15.6,20-10.6c0,0,0.6,0.4,0.7,0.5c4.1,2.8,6.3,7.4,5.8,12.3c-0.5,5-3.5,9.1-8.1,11c0,0-0.1,0-0.1,0.1    c-9.5,3.9-18.6-3.9-18.3-12.8" />
    </g>
  </g>
</svg>