<svg xmlns="http://www.w3.org/2000/svg" xmlns:xlink="http://www.w3.org/1999/xlink" version="1.1" width="100" height="100"
  viewBox="0 0 164 164" enable-background="new 0 0 164 164" xml:space="preserve">
  <g>
    <g>
      <path
        d="M163,82c0-14.6-3.9-28.9-11.4-41.4v-22c0,0,0,0,0,0c0-6-4.9-11-11-11H130c-0.6,0-1,0.4-1,1v7.5C115.3,6.2,99.1,1,82,1    c-22.8,0-44.7,9.7-60,26.6c-5.4,0.7-9.6,5.3-9.6,10.9v2.1C4.9,53.1,1,67.4,1,82c0,14.6,3.9,28.9,11.4,41.5v5.7c0,0,0,0.1,0,0.1    c0,6,4.9,11,11,11h2.3C40.9,154.9,60.9,163,82,163C126.8,163,163,126.5,163,82z M161,82c0,22-9,41.9-23.6,56.2H34.9v-17.9h105.7    c6,0,11-4.9,11-11V44.6C157.8,56.1,161,68.9,161,82z M131,9.6h9.6c4.9,0,9,4,9,9c0,5-4,9-9,9H131V9.6z M82,3    c17.1,0,33.4,5.4,47,15.6v9H24.8C39.7,11.9,60.4,3,82,3z M23.4,29.5h117.3c3.7,0,7-1.8,9-4.6v84.4c0,4.9-4,9-9,9    c-10.1,0-96.5,0-117.3,0c-3.6,0-6.9,1.7-9,4.6c0,0,0,0,0,0V38.5C14.4,33.5,18.4,29.5,23.4,29.5z M3,82c0-13.1,3.2-25.9,9.4-37.4    v74.8C6.2,107.9,3,95.1,3,82z M17,122.9c1.7-1.7,3.9-2.6,6.3-2.6h9.6v17.9c-0.7,0-9.8,0-9.6,0C15.4,138.2,11.4,128.5,17,122.9z     M28.6,140.2c16,0,94.9,0,106.7,0C121.3,153.1,102.5,161,82,161C62.1,161,43.2,153.6,28.6,140.2z" />
    </g>
    <g>
      <path
        d="M79.7,146.3c0-0.6-0.4-1-1-1H54.5c-0.6,0-1,0.4-1,1c0,0.6,0.4,1,1,1h24.2C79.2,147.3,79.7,146.8,79.7,146.3z" />
    </g>
    <g>
      <path d="M87.6,146.3c0-0.6-0.4-1-1-1h-4c-0.6,0-1,0.4-1,1c0,0.6,0.4,1,1,1h4C87.1,147.3,87.6,146.8,87.6,146.3z" />
    </g>
    <g>
      <path d="M90,147.3h2.6c0.6,0,1-0.4,1-1c0-0.6-0.4-1-1-1H90c-0.6,0-1,0.4-1,1C89,146.8,89.4,147.3,90,147.3z" />
    </g>
    <g>
      <path
        d="M109.5,150.2H85.3c-0.6,0-1,0.4-1,1c0,0.6,0.4,1,1,1h24.2c0.6,0,1-0.4,1-1C110.5,150.6,110.1,150.2,109.5,150.2z" />
    </g>
    <g>
      <path d="M81.4,150.2h-4c-0.6,0-1,0.4-1,1c0,0.6,0.4,1,1,1h4c0.6,0,1-0.4,1-1C82.4,150.6,82,150.2,81.4,150.2z" />
    </g>
    <g>
      <path d="M74,150.2h-2.6c-0.6,0-1,0.4-1,1c0,0.6,0.4,1,1,1H74c0.6,0,1-0.4,1-1C75,150.6,74.6,150.2,74,150.2z" />
    </g>
    <g>
      <path
        d="M37.2,74.1c0.1,0.3,0.3,0.6,0.7,0.7l10.3,3.4v17.6c0,0.4,0.3,0.8,0.7,0.9l32.9,11c0,0,0,0,0,0c0.1,0,0.2,0.1,0.3,0.1    c0.1,0,0.2,0,0.3-0.1c0,0,0,0,0,0l32.9-11c0.4-0.1,0.7-0.5,0.7-0.9V78.3l10.3-3.4c0.3-0.1,0.6-0.4,0.7-0.7c0.1-0.3,0-0.7-0.3-0.9    l-10.3-10.3l10.3-10.3c0.2-0.2,0.3-0.6,0.3-0.9c-0.1-0.3-0.3-0.6-0.7-0.7L93.3,40c-0.4-0.1-0.8,0-1,0.2L82,50.5L71.7,40.3    c-0.3-0.3-0.7-0.4-1-0.2L37.8,51c-0.3,0.1-0.6,0.4-0.7,0.7c-0.1,0.3,0,0.7,0.3,0.9l10.3,10.3L37.4,73.2    C37.2,73.4,37.1,73.8,37.2,74.1z M50.1,78.9l20.6,6.9c0.4,0.1,0.8,0,1-0.2l9.3-9.3v29.1L50.1,95.1V78.9z M82,53l0.3,0.1l29.5,9.8    l-29.5,9.8L82,72.8l-0.3-0.1l-29.5-9.8l29.5-9.8L82,53z M113.9,95.1L83,105.4V76.3l9.3,9.3c0.2,0.2,0.4,0.3,0.7,0.3    c0.1,0,0.2,0,0.3-0.1l20.6-6.9V95.1z M93.2,83.7l-9.4-9.4l30.8-10.3l9.4,9.4L93.2,83.7z M93.2,42.1L124,52.4l-9.4,9.4L83.9,51.5    L93.2,42.1z M70.8,42.1l9.4,9.4L49.4,61.8L40,52.4L70.8,42.1z M49.4,64.1l30.8,10.3l-9.4,9.4L40,73.5L49.4,64.1z" />
    </g>
  </g>
</svg>