<svg xmlns="http://www.w3.org/2000/svg" xmlns:xlink="http://www.w3.org/1999/xlink" version="1.1" width="100" height="100"
  viewBox="0 0 164 164" enable-background="new 0 0 164 164" xml:space="preserve">
  <g>
    <g>
      <path
        d="M80.3,141.1c0-0.5-0.4-0.9-0.9-0.9H57.1c-0.5,0-0.9,0.4-0.9,0.9c0,0.5,0.4,0.9,0.9,0.9h22.3    C79.9,142,80.3,141.6,80.3,141.1z" />
    </g>
    <g>
      <path
        d="M87.5,141.1c0-0.5-0.4-0.9-0.9-0.9h-3.7c-0.5,0-0.9,0.4-0.9,0.9c0,0.5,0.4,0.9,0.9,0.9h3.7    C87.1,142,87.5,141.6,87.5,141.1z" />
    </g>
    <g>
      <path
        d="M89.8,142h2.4c0.5,0,0.9-0.4,0.9-0.9c0-0.5-0.4-0.9-0.9-0.9h-2.4c-0.5,0-0.9,0.4-0.9,0.9C88.8,141.6,89.2,142,89.8,142z" />
    </g>
    <g>
      <path
        d="M107.7,144.7H85.5c-0.5,0-0.9,0.4-0.9,0.9c0,0.5,0.4,0.9,0.9,0.9h22.3c0.5,0,0.9-0.4,0.9-0.9    C108.7,145.1,108.2,144.7,107.7,144.7z" />
    </g>
    <g>
      <path
        d="M81.9,144.7h-3.7c-0.5,0-0.9,0.4-0.9,0.9c0,0.5,0.4,0.9,0.9,0.9h3.7c0.5,0,0.9-0.4,0.9-0.9    C82.8,145.1,82.4,144.7,81.9,144.7z" />
    </g>
    <g>
      <path
        d="M75.1,144.7h-2.4c-0.5,0-0.9,0.4-0.9,0.9c0,0.5,0.4,0.9,0.9,0.9h2.4c0.5,0,0.9-0.4,0.9-0.9    C76,145.1,75.6,144.7,75.1,144.7z" />
    </g>
    <g>
      <path
        d="M81.8,119.9c-3.2,0-5.7,2.6-5.7,5.7c0,3.2,2.6,5.7,5.7,5.7c3.2,0,5.7-2.6,5.7-5.7C87.5,122.5,85,119.9,81.8,119.9z     M81.8,129.5c-2.1,0-3.9-1.7-3.9-3.9c0-2.1,1.7-3.9,3.9-3.9c2.1,0,3.9,1.7,3.9,3.9C85.7,127.8,83.9,129.5,81.8,129.5z" />
    </g>
    <g>
      <path
        d="M157.4,103.4c-0.9-0.9-1.9-1.7-3-2.4c1.6-6.1,2.4-12.5,2.4-18.9c0-7.5-1.1-14.8-3.3-21.9V42.8c0-2.8-2.2-5-5-5h-6.2    c-14-19-36.4-30.3-59.9-30.3c-24.1,0-46.7,11.7-60.7,31.3h-1.5c-0.4,0-0.8,0.3-0.9,0.7l-1.1,4.8c-1,0.3-2,0.7-3,1.2L11.1,43    c-0.4-0.2-0.8-0.2-1.1,0.1l-4.7,4.7c-0.3,0.3-0.4,0.8-0.1,1.1l2.6,4.2c-0.5,0.9-0.9,1.9-1.2,3l-4.8,1.1C1.3,57.3,1,57.7,1,58.1    v6.7c0,0.4,0.3,0.8,0.7,0.9l4.8,1.1c0.3,1,0.7,2,1.2,3l-2.6,4.2c-0.2,0.4-0.2,0.8,0.1,1.1l2.8,2.8C8,79.2,8,80.6,8,82    c0,41,33.4,74.5,74.5,74.5c21,0,39.8-8.5,53.4-22.6c4,2,8.4,2.4,12.7,1.3c0.3-0.1,0.6-0.3,0.7-0.6c0.1-0.3,0-0.7-0.2-0.9l-7-7    c3.5-4.7,6.5-9.8,8.8-15.1l10.1,10.1c0.2,0.2,0.6,0.3,0.9,0.2c0.3-0.1,0.6-0.3,0.6-0.7C164,114.8,162.1,108.1,157.4,103.4z     M151.8,42.8v18.7c0,1.8-1.4,3.2-3.2,3.2h-18.7c-1.8,0-3.2-1.4-3.2-3.2V42.8c0-1.8,1.4-3.2,3.2-3.2h18.7    C150.3,39.7,151.8,41.1,151.8,42.8z M9.6,70.2c0.2-0.3,0.2-0.6,0-0.9C9,68.2,8.5,67,8.1,65.7c-0.1-0.3-0.4-0.6-0.7-0.6l-4.6-1    v-5.2l4.6-1c0.3-0.1,0.6-0.3,0.7-0.6c0.4-1.3,0.9-2.5,1.5-3.6c0.2-0.3,0.2-0.7,0-0.9l-2.5-4l3.7-3.7l4,2.5c0.3,0.2,0.6,0.2,0.9,0    c1.1-0.6,2.3-1.1,3.6-1.5c0.3-0.1,0.6-0.4,0.6-0.7l1-4.6h1.2c0,0,0,0,0,0c0,0,0,0,0,0h4l1,4.6c0.1,0.3,0.3,0.6,0.6,0.7    c1.3,0.4,2.5,0.8,3.6,1.5c0.3,0.2,0.7,0.2,0.9,0l4-2.5l3.7,3.7l-2.5,4c-0.2,0.3-0.2,0.6,0,0.9c0.6,1.1,1.1,2.3,1.5,3.6    c0.1,0.3,0.4,0.6,0.7,0.6l4.6,1V64l-4.6,1c-0.3,0.1-0.6,0.3-0.7,0.6c-0.4,1.3-0.9,2.5-1.5,3.6c-0.2,0.3-0.2,0.7,0,0.9l2.5,4    l-3.7,3.7l-4-2.5c-0.3-0.2-0.6-0.2-0.9,0c-1.1,0.6-2.3,1.1-3.6,1.5c-0.3,0.1-0.6,0.4-0.6,0.7l-1,4.6h-5.2l-1-4.6    c-0.1-0.3-0.3-0.6-0.6-0.7c-1.3-0.4-2.5-0.9-3.6-1.5c-0.3-0.2-0.7-0.2-0.9,0l-4,2.5l-3.7-3.7L9.6,70.2z M9.8,82c0-0.8,0-1.6,0-2.4    l0.1,0.1c0.3,0.3,0.8,0.4,1.1,0.1l4.2-2.6c0.9,0.5,1.9,0.9,3,1.2l1.1,4.8c0.1,0.4,0.5,0.7,0.9,0.7h6.7c0.4,0,0.8-0.3,0.9-0.7    l1.1-4.8c1-0.3,2-0.7,3-1.2l4.2,2.6c0.4,0.2,0.8,0.2,1.1-0.1l4.7-4.7c0.3-0.3,0.4-0.8,0.1-1.1l-2.6-4.2c0.5-0.9,0.9-1.9,1.2-3    l4.8-1.1c0.4-0.1,0.7-0.5,0.7-0.9v-6.7c0-0.4-0.3-0.8-0.7-0.9l-4.8-1.1c-0.3-1-0.7-2-1.2-3L42,49c0.2-0.4,0.2-0.8-0.1-1.1    l-4.7-4.7c-0.3-0.3-0.8-0.4-1.1-0.1l-4.1,2.6c-0.9-0.5-1.9-0.9-3-1.2l-1.1-4.8c-0.1-0.4-0.5-0.7-0.9-0.7H24    C37.7,20.4,59.4,9.4,82.4,9.4c22.5,0,43.9,10.6,57.6,28.4h-10.2c-2.8,0-5,2.2-5,5v18.7c0,2.8,2.2,5,5,5h18.7    c1.8,0,3.4-0.9,4.2-2.4C154.3,70,155,76,155,82c0,6.1-0.8,12.2-2.3,18c-4.1-2.1-8.8-2.7-13.3-1.6l-22.6-22.6V31.9    c0-3.9-3.2-7.1-7.1-7.1H55.1c-3.9,0-7.1,3.2-7.1,7.1v67.6H35.8H21.9c-0.5,0-0.9,0.4-0.9,0.9v11.1c0,0.5,0.4,0.9,0.9,0.9h13.9H48    v15.9c0,2.1,0.9,4,2.4,5.3H31.4C18.1,120.5,9.8,102.2,9.8,82z M111.3,70.3V33c0-0.5-0.4-0.9-0.9-0.9h-56c-0.5,0-0.9,0.4-0.9,0.9    v66.5h-3.7V31.9c0-2.9,2.4-5.3,5.3-5.3h54.6c2.9,0,5.3,2.4,5.3,5.3V74L111.3,70.3z M103.5,62.4c1.6-6.4-0.3-13.3-5-18    c-4.7-4.7-11.4-6.6-17.9-5c-0.3,0.1-0.6,0.3-0.7,0.6c-0.1,0.3,0,0.7,0.2,0.9l1.1,1.1l-8.9,2.4c-0.3,0.1-0.6,0.3-0.6,0.6l-2.4,8.9    l-1.2-1.2c-0.2-0.2-0.6-0.3-0.9-0.2c-0.3,0.1-0.6,0.3-0.6,0.7c-1.6,6.5,0.3,13.2,5,17.9c4.7,4.7,11.6,6.6,18,5L109.5,96v19.7H55.3    v-3.3h31.6c0.5,0,0.9-0.4,0.9-0.9v-11.1c0-0.5-0.4-0.9-0.9-0.9H55.3V33.9h54.2v34.6L103.5,62.4z M87.8,60.5l-9.4,2.5l-7.5-7.5    l2.5-9.4l9.4-2.5l7.5,7.5L87.8,60.5z M115,101.6v26.8c0,2.9-2.4,5.3-5.3,5.3H55.1c-2.9,0-5.3-2.4-5.3-5.3v-15.9h3.7v4.2    c0,0.5,0.4,0.9,0.9,0.9h56c0.5,0,0.9-0.4,0.9-0.9V97.9L115,101.6z M34.9,110.6H22.8v-9.2h12.1V110.6z M36.7,101.3H86v9.2H54.4    c0,0,0,0,0,0c0,0,0,0,0,0h-5.5c0,0,0,0,0,0c0,0,0,0,0,0H36.7V101.3z M33.4,135.5c27.3,0,67.4,0,98.1,0    c-13.4,12.3-30.7,19.1-49.1,19.1C63.5,154.6,46.3,147.4,33.4,135.5z M133.4,133.7h-18.9c1.5-1.3,2.4-3.2,2.4-5.3v-25    c9.9,9.8,8.7,8.7,8.8,8.8c-1.6,6.4,0.3,13.3,5,18c1.1,1.1,2.3,2,3.5,2.8C133.9,133.2,133.7,133.4,133.4,133.7z M138.8,123.5    l2.5-9.4l7.2-1.9c-2.1,4.7-4.7,9.1-7.8,13.2L138.8,123.5z M161,119.2l-9.3-9.3c-0.2-0.2-0.6-0.3-0.9-0.2l-10.5,2.8    c-0.3,0.1-0.6,0.3-0.7,0.6l-2.8,10.5c-0.1,0.3,0,0.7,0.2,0.9l9.3,9.3c-3.6,0.5-7.2-0.1-10.4-1.8c0,0,0,0,0,0    c-1.5-0.8-2.8-1.8-4.1-3c-4.4-4.4-6-10.8-4.4-16.7c0.1-0.3,0-0.7-0.2-0.9c-38.7-38.7,18.5,18.5-36.7-36.7    c-0.2-0.2-0.6-0.3-0.9-0.2c-5.9,1.7-12.3,0-16.7-4.4c-3.9-3.9-5.6-9.2-4.8-14.5l9.3,9.3c0.1,0.1,0.2,0.1,0.3,0.2c0,0,0,0,0,0    c0.1,0,0.2,0.1,0.3,0.1c0,0,0,0,0,0c0.1,0,0.2,0,0.2,0l10.5-2.8c0.3-0.1,0.6-0.3,0.6-0.6l2.8-10.5c0.1-0.3,0-0.7-0.2-0.9l-8.3-8.3    c0,0-0.1,0-0.1-0.1l-1-1c5.3-0.8,10.6,1,14.5,4.8c4.4,4.4,6,10.8,4.4,16.7c-0.1,0.3,0,0.7,0.2,0.9l7.5,7.5c0,0,0.1,0.1,0.1,0.1    l0.4,0.4c0,0,0,0,0,0l5.5,5.5c0,0,0,0,0,0l23.2,23.2c0.2,0.2,0.6,0.3,0.9,0.2c5.9-1.7,12.3,0,16.7,4.4    C160,108.5,161.7,113.8,161,119.2z" />
    </g>
    <g>
      <path
        d="M80.6,47.7c-3.1,0-5.6,2.5-5.6,5.6c0,3.1,2.5,5.6,5.6,5.6c3.1,0,5.6-2.5,5.6-5.6C86.2,50.2,83.7,47.7,80.6,47.7z     M80.6,57.1c-2.1,0-3.8-1.7-3.8-3.8c0-2.1,1.7-3.8,3.8-3.8c2.1,0,3.8,1.7,3.8,3.8C84.4,55.4,82.7,57.1,80.6,57.1z" />
    </g>
    <g>
      <polygon points="18.2,63.6 11.8,60.6 11.8,60.4 18.2,57.5 18.2,55.4 9.6,59.4 9.6,61.7 18.2,65.6   " />
    </g>
    <g>
      <polygon points="28.4,52.9 26.6,52.9 18.7,69.9 20.5,69.9   " />
    </g>
    <g>
      <polygon points="37.5,59.4 28.9,55.4 28.9,57.5 35.3,60.4 35.3,60.6 28.9,63.6 28.9,65.6 37.5,61.7   " />
    </g>
    <g>
      <path
        d="M137.2,56c1.2,0,2.4-0.4,3.4-1.1l4.9,4.9c0.2,0.2,0.4,0.3,0.6,0.3c0.2,0,0.5-0.1,0.7-0.3c0.4-0.4,0.4-0.9,0-1.3l-4.9-4.9    c2.8-3.9,0-9.2-4.7-9.2c-5.2,0-7.8,6.3-4.1,10C134.1,55.3,135.6,56,137.2,56z M137.2,46.1c3.5,0,5.3,4.3,2.8,6.8    c-0.8,0.8-1.8,1.2-2.8,1.2c-1.1,0-2.1-0.4-2.8-1.2C131.8,50.5,133.6,46.1,137.2,46.1z" />
    </g>
  </g>
</svg>